<mxfile host="app.diagrams.net" modified="2024-07-18T20:07:26.279Z" agent="Mozilla/5.0 (Windows NT 10.0; Win64; x64) AppleWebKit/537.36 (KHTML, like Gecko) Chrome/126.0.0.0 Safari/537.36" etag="iUy4UYRIGWbR6vHRvL-A" version="24.7.1" type="device">
  <diagram name="1 oldal" id="GB5UjYUCHH-HjBmErTQS">
    <mxGraphModel dx="1834" dy="650" grid="1" gridSize="10" guides="1" tooltips="1" connect="1" arrows="1" fold="1" page="1" pageScale="1" pageWidth="827" pageHeight="1169" math="0" shadow="0">
      <root>
        <mxCell id="0" />
        <mxCell id="1" parent="0" />
        <mxCell id="wuVaLa7RmXQEy_1NEMXT-1" value="" style="rounded=0;whiteSpace=wrap;html=1;" vertex="1" parent="1">
          <mxGeometry x="-760" y="40" width="600" height="160" as="geometry" />
        </mxCell>
        <mxCell id="wuVaLa7RmXQEy_1NEMXT-2" value="Front end" style="rounded=0;whiteSpace=wrap;html=1;" vertex="1" parent="1">
          <mxGeometry x="-760" y="40" width="80" height="20" as="geometry" />
        </mxCell>
        <mxCell id="wuVaLa7RmXQEy_1NEMXT-3" value="" style="rounded=0;whiteSpace=wrap;html=1;" vertex="1" parent="1">
          <mxGeometry x="-760" y="280" width="600" height="160" as="geometry" />
        </mxCell>
        <mxCell id="wuVaLa7RmXQEy_1NEMXT-4" value="Back end" style="rounded=0;whiteSpace=wrap;html=1;" vertex="1" parent="1">
          <mxGeometry x="-760" y="280" width="80" height="20" as="geometry" />
        </mxCell>
        <mxCell id="wuVaLa7RmXQEy_1NEMXT-5" value="" style="rounded=0;whiteSpace=wrap;html=1;" vertex="1" parent="1">
          <mxGeometry x="-760" y="480" width="600" height="80" as="geometry" />
        </mxCell>
        <mxCell id="wuVaLa7RmXQEy_1NEMXT-6" value="Database" style="rounded=0;whiteSpace=wrap;html=1;" vertex="1" parent="1">
          <mxGeometry x="-760" y="480" width="80" height="20" as="geometry" />
        </mxCell>
        <mxCell id="wuVaLa7RmXQEy_1NEMXT-8" value="ASP .NET" style="text;html=1;align=center;verticalAlign=middle;whiteSpace=wrap;rounded=0;" vertex="1" parent="1">
          <mxGeometry x="-750" y="310" width="60" height="20" as="geometry" />
        </mxCell>
        <mxCell id="wuVaLa7RmXQEy_1NEMXT-9" value="HTMX" style="text;html=1;align=center;verticalAlign=middle;whiteSpace=wrap;rounded=0;" vertex="1" parent="1">
          <mxGeometry x="-750" y="70" width="60" height="20" as="geometry" />
        </mxCell>
        <mxCell id="wuVaLa7RmXQEy_1NEMXT-10" value="&lt;ul&gt;&lt;li&gt;API Call&lt;/li&gt;&lt;ul&gt;&lt;li&gt;Basic Crud APIs&lt;/li&gt;&lt;/ul&gt;&lt;li&gt;Templating&lt;/li&gt;&lt;li&gt;Creditentials&lt;/li&gt;&lt;li&gt;&lt;br&gt;&lt;/li&gt;&lt;/ul&gt;" style="text;html=1;align=left;verticalAlign=middle;whiteSpace=wrap;rounded=0;" vertex="1" parent="1">
          <mxGeometry x="-670" y="290" width="500" height="140" as="geometry" />
        </mxCell>
        <mxCell id="wuVaLa7RmXQEy_1NEMXT-11" value="&lt;span style=&quot;margin: 0px; padding: 0px; border: 0px; font-weight: 700; font-family: &amp;quot;gg mono&amp;quot;, &amp;quot;Source Code Pro&amp;quot;, Consolas, &amp;quot;Andale Mono WT&amp;quot;, &amp;quot;Andale Mono&amp;quot;, &amp;quot;Lucida Console&amp;quot;, &amp;quot;Lucida Sans Typewriter&amp;quot;, &amp;quot;DejaVu Sans Mono&amp;quot;, &amp;quot;Bitstream Vera Sans Mono&amp;quot;, &amp;quot;Liberation Mono&amp;quot;, &amp;quot;Nimbus Mono L&amp;quot;, Monaco, &amp;quot;Courier New&amp;quot;, Courier, monospace; font-size: 14px; vertical-align: baseline; outline: 0px; color: rgb(0, 92, 197); white-space-collapse: preserve;&quot; class=&quot;hljs-section&quot;&gt;# Arch basis for translation page...&lt;/span&gt;&lt;span style=&quot;color: oklab(0.321088 -0.000220731 -0.00934622); font-family: &amp;quot;gg mono&amp;quot;, &amp;quot;Source Code Pro&amp;quot;, Consolas, &amp;quot;Andale Mono WT&amp;quot;, &amp;quot;Andale Mono&amp;quot;, &amp;quot;Lucida Console&amp;quot;, &amp;quot;Lucida Sans Typewriter&amp;quot;, &amp;quot;DejaVu Sans Mono&amp;quot;, &amp;quot;Bitstream Vera Sans Mono&amp;quot;, &amp;quot;Liberation Mono&amp;quot;, &amp;quot;Nimbus Mono L&amp;quot;, Monaco, &amp;quot;Courier New&amp;quot;, Courier, monospace; font-size: 14px; white-space-collapse: preserve; background-color: oklab(0.963963 -0.000228554 -0.00283051);&quot;&gt;&lt;br&gt;&lt;br&gt;&lt;/span&gt;&lt;span style=&quot;margin: 0px; padding: 0px; border: 0px; font-weight: 700; font-family: &amp;quot;gg mono&amp;quot;, &amp;quot;Source Code Pro&amp;quot;, Consolas, &amp;quot;Andale Mono WT&amp;quot;, &amp;quot;Andale Mono&amp;quot;, &amp;quot;Lucida Console&amp;quot;, &amp;quot;Lucida Sans Typewriter&amp;quot;, &amp;quot;DejaVu Sans Mono&amp;quot;, &amp;quot;Bitstream Vera Sans Mono&amp;quot;, &amp;quot;Liberation Mono&amp;quot;, &amp;quot;Nimbus Mono L&amp;quot;, Monaco, &amp;quot;Courier New&amp;quot;, Courier, monospace; font-size: 14px; vertical-align: baseline; outline: 0px; color: rgb(0, 92, 197); white-space-collapse: preserve;&quot; class=&quot;hljs-section&quot;&gt;## Frontend:&lt;/span&gt;&lt;span style=&quot;color: oklab(0.321088 -0.000220731 -0.00934622); font-family: &amp;quot;gg mono&amp;quot;, &amp;quot;Source Code Pro&amp;quot;, Consolas, &amp;quot;Andale Mono WT&amp;quot;, &amp;quot;Andale Mono&amp;quot;, &amp;quot;Lucida Console&amp;quot;, &amp;quot;Lucida Sans Typewriter&amp;quot;, &amp;quot;DejaVu Sans Mono&amp;quot;, &amp;quot;Bitstream Vera Sans Mono&amp;quot;, &amp;quot;Liberation Mono&amp;quot;, &amp;quot;Nimbus Mono L&amp;quot;, Monaco, &amp;quot;Courier New&amp;quot;, Courier, monospace; font-size: 14px; white-space-collapse: preserve; background-color: oklab(0.963963 -0.000228554 -0.00283051);&quot;&gt;&lt;br&gt;&lt;/span&gt;&lt;span style=&quot;margin: 0px; padding: 0px; border: 0px; font-family: &amp;quot;gg mono&amp;quot;, &amp;quot;Source Code Pro&amp;quot;, Consolas, &amp;quot;Andale Mono WT&amp;quot;, &amp;quot;Andale Mono&amp;quot;, &amp;quot;Lucida Console&amp;quot;, &amp;quot;Lucida Sans Typewriter&amp;quot;, &amp;quot;DejaVu Sans Mono&amp;quot;, &amp;quot;Bitstream Vera Sans Mono&amp;quot;, &amp;quot;Liberation Mono&amp;quot;, &amp;quot;Nimbus Mono L&amp;quot;, Monaco, &amp;quot;Courier New&amp;quot;, Courier, monospace; font-size: 14px; vertical-align: baseline; outline: 0px; color: rgb(115, 92, 15); white-space-collapse: preserve;&quot; class=&quot;hljs-bullet&quot;&gt;-&lt;/span&gt;&lt;span style=&quot;color: oklab(0.321088 -0.000220731 -0.00934622); font-family: &amp;quot;gg mono&amp;quot;, &amp;quot;Source Code Pro&amp;quot;, Consolas, &amp;quot;Andale Mono WT&amp;quot;, &amp;quot;Andale Mono&amp;quot;, &amp;quot;Lucida Console&amp;quot;, &amp;quot;Lucida Sans Typewriter&amp;quot;, &amp;quot;DejaVu Sans Mono&amp;quot;, &amp;quot;Bitstream Vera Sans Mono&amp;quot;, &amp;quot;Liberation Mono&amp;quot;, &amp;quot;Nimbus Mono L&amp;quot;, Monaco, &amp;quot;Courier New&amp;quot;, Courier, monospace; font-size: 14px; white-space-collapse: preserve; background-color: oklab(0.963963 -0.000228554 -0.00283051);&quot;&gt; Pages:&lt;br&gt;&lt;/span&gt;&lt;span style=&quot;margin: 0px; padding: 0px; border: 0px; font-family: &amp;quot;gg mono&amp;quot;, &amp;quot;Source Code Pro&amp;quot;, Consolas, &amp;quot;Andale Mono WT&amp;quot;, &amp;quot;Andale Mono&amp;quot;, &amp;quot;Lucida Console&amp;quot;, &amp;quot;Lucida Sans Typewriter&amp;quot;, &amp;quot;DejaVu Sans Mono&amp;quot;, &amp;quot;Bitstream Vera Sans Mono&amp;quot;, &amp;quot;Liberation Mono&amp;quot;, &amp;quot;Nimbus Mono L&amp;quot;, Monaco, &amp;quot;Courier New&amp;quot;, Courier, monospace; font-size: 14px; vertical-align: baseline; outline: 0px; color: rgb(115, 92, 15); white-space-collapse: preserve;&quot; class=&quot;hljs-bullet&quot;&gt;    -&lt;/span&gt;&lt;span style=&quot;color: oklab(0.321088 -0.000220731 -0.00934622); font-family: &amp;quot;gg mono&amp;quot;, &amp;quot;Source Code Pro&amp;quot;, Consolas, &amp;quot;Andale Mono WT&amp;quot;, &amp;quot;Andale Mono&amp;quot;, &amp;quot;Lucida Console&amp;quot;, &amp;quot;Lucida Sans Typewriter&amp;quot;, &amp;quot;DejaVu Sans Mono&amp;quot;, &amp;quot;Bitstream Vera Sans Mono&amp;quot;, &amp;quot;Liberation Mono&amp;quot;, &amp;quot;Nimbus Mono L&amp;quot;, Monaco, &amp;quot;Courier New&amp;quot;, Courier, monospace; font-size: 14px; white-space-collapse: preserve; background-color: oklab(0.963963 -0.000228554 -0.00283051);&quot;&gt; Login&lt;br&gt;&lt;/span&gt;&lt;span style=&quot;margin: 0px; padding: 0px; border: 0px; font-family: &amp;quot;gg mono&amp;quot;, &amp;quot;Source Code Pro&amp;quot;, Consolas, &amp;quot;Andale Mono WT&amp;quot;, &amp;quot;Andale Mono&amp;quot;, &amp;quot;Lucida Console&amp;quot;, &amp;quot;Lucida Sans Typewriter&amp;quot;, &amp;quot;DejaVu Sans Mono&amp;quot;, &amp;quot;Bitstream Vera Sans Mono&amp;quot;, &amp;quot;Liberation Mono&amp;quot;, &amp;quot;Nimbus Mono L&amp;quot;, Monaco, &amp;quot;Courier New&amp;quot;, Courier, monospace; font-size: 14px; vertical-align: baseline; outline: 0px; color: rgb(115, 92, 15); white-space-collapse: preserve;&quot; class=&quot;hljs-bullet&quot;&gt;    -&lt;/span&gt;&lt;span style=&quot;color: oklab(0.321088 -0.000220731 -0.00934622); font-family: &amp;quot;gg mono&amp;quot;, &amp;quot;Source Code Pro&amp;quot;, Consolas, &amp;quot;Andale Mono WT&amp;quot;, &amp;quot;Andale Mono&amp;quot;, &amp;quot;Lucida Console&amp;quot;, &amp;quot;Lucida Sans Typewriter&amp;quot;, &amp;quot;DejaVu Sans Mono&amp;quot;, &amp;quot;Bitstream Vera Sans Mono&amp;quot;, &amp;quot;Liberation Mono&amp;quot;, &amp;quot;Nimbus Mono L&amp;quot;, Monaco, &amp;quot;Courier New&amp;quot;, Courier, monospace; font-size: 14px; white-space-collapse: preserve; background-color: oklab(0.963963 -0.000228554 -0.00283051);&quot;&gt; Logout&lt;br&gt;&lt;/span&gt;&lt;span style=&quot;margin: 0px; padding: 0px; border: 0px; font-family: &amp;quot;gg mono&amp;quot;, &amp;quot;Source Code Pro&amp;quot;, Consolas, &amp;quot;Andale Mono WT&amp;quot;, &amp;quot;Andale Mono&amp;quot;, &amp;quot;Lucida Console&amp;quot;, &amp;quot;Lucida Sans Typewriter&amp;quot;, &amp;quot;DejaVu Sans Mono&amp;quot;, &amp;quot;Bitstream Vera Sans Mono&amp;quot;, &amp;quot;Liberation Mono&amp;quot;, &amp;quot;Nimbus Mono L&amp;quot;, Monaco, &amp;quot;Courier New&amp;quot;, Courier, monospace; font-size: 14px; vertical-align: baseline; outline: 0px; color: rgb(115, 92, 15); white-space-collapse: preserve;&quot; class=&quot;hljs-bullet&quot;&gt;    -&lt;/span&gt;&lt;span style=&quot;color: oklab(0.321088 -0.000220731 -0.00934622); font-family: &amp;quot;gg mono&amp;quot;, &amp;quot;Source Code Pro&amp;quot;, Consolas, &amp;quot;Andale Mono WT&amp;quot;, &amp;quot;Andale Mono&amp;quot;, &amp;quot;Lucida Console&amp;quot;, &amp;quot;Lucida Sans Typewriter&amp;quot;, &amp;quot;DejaVu Sans Mono&amp;quot;, &amp;quot;Bitstream Vera Sans Mono&amp;quot;, &amp;quot;Liberation Mono&amp;quot;, &amp;quot;Nimbus Mono L&amp;quot;, Monaco, &amp;quot;Courier New&amp;quot;, Courier, monospace; font-size: 14px; white-space-collapse: preserve; background-color: oklab(0.963963 -0.000228554 -0.00283051);&quot;&gt; Home/Brows&lt;br&gt;&lt;/span&gt;&lt;span style=&quot;margin: 0px; padding: 0px; border: 0px; font-family: &amp;quot;gg mono&amp;quot;, &amp;quot;Source Code Pro&amp;quot;, Consolas, &amp;quot;Andale Mono WT&amp;quot;, &amp;quot;Andale Mono&amp;quot;, &amp;quot;Lucida Console&amp;quot;, &amp;quot;Lucida Sans Typewriter&amp;quot;, &amp;quot;DejaVu Sans Mono&amp;quot;, &amp;quot;Bitstream Vera Sans Mono&amp;quot;, &amp;quot;Liberation Mono&amp;quot;, &amp;quot;Nimbus Mono L&amp;quot;, Monaco, &amp;quot;Courier New&amp;quot;, Courier, monospace; font-size: 14px; vertical-align: baseline; outline: 0px; color: rgb(115, 92, 15); white-space-collapse: preserve;&quot; class=&quot;hljs-bullet&quot;&gt;    -&lt;/span&gt;&lt;span style=&quot;color: oklab(0.321088 -0.000220731 -0.00934622); font-family: &amp;quot;gg mono&amp;quot;, &amp;quot;Source Code Pro&amp;quot;, Consolas, &amp;quot;Andale Mono WT&amp;quot;, &amp;quot;Andale Mono&amp;quot;, &amp;quot;Lucida Console&amp;quot;, &amp;quot;Lucida Sans Typewriter&amp;quot;, &amp;quot;DejaVu Sans Mono&amp;quot;, &amp;quot;Bitstream Vera Sans Mono&amp;quot;, &amp;quot;Liberation Mono&amp;quot;, &amp;quot;Nimbus Mono L&amp;quot;, Monaco, &amp;quot;Courier New&amp;quot;, Courier, monospace; font-size: 14px; white-space-collapse: preserve; background-color: oklab(0.963963 -0.000228554 -0.00283051);&quot;&gt; Profile&lt;br&gt;&lt;/span&gt;&lt;span style=&quot;margin: 0px; padding: 0px; border: 0px; font-family: &amp;quot;gg mono&amp;quot;, &amp;quot;Source Code Pro&amp;quot;, Consolas, &amp;quot;Andale Mono WT&amp;quot;, &amp;quot;Andale Mono&amp;quot;, &amp;quot;Lucida Console&amp;quot;, &amp;quot;Lucida Sans Typewriter&amp;quot;, &amp;quot;DejaVu Sans Mono&amp;quot;, &amp;quot;Bitstream Vera Sans Mono&amp;quot;, &amp;quot;Liberation Mono&amp;quot;, &amp;quot;Nimbus Mono L&amp;quot;, Monaco, &amp;quot;Courier New&amp;quot;, Courier, monospace; font-size: 14px; vertical-align: baseline; outline: 0px; color: rgb(115, 92, 15); white-space-collapse: preserve;&quot; class=&quot;hljs-bullet&quot;&gt;    -&lt;/span&gt;&lt;span style=&quot;color: oklab(0.321088 -0.000220731 -0.00934622); font-family: &amp;quot;gg mono&amp;quot;, &amp;quot;Source Code Pro&amp;quot;, Consolas, &amp;quot;Andale Mono WT&amp;quot;, &amp;quot;Andale Mono&amp;quot;, &amp;quot;Lucida Console&amp;quot;, &amp;quot;Lucida Sans Typewriter&amp;quot;, &amp;quot;DejaVu Sans Mono&amp;quot;, &amp;quot;Bitstream Vera Sans Mono&amp;quot;, &amp;quot;Liberation Mono&amp;quot;, &amp;quot;Nimbus Mono L&amp;quot;, Monaco, &amp;quot;Courier New&amp;quot;, Courier, monospace; font-size: 14px; white-space-collapse: preserve; background-color: oklab(0.963963 -0.000228554 -0.00283051);&quot;&gt; Staff/Managa&lt;br&gt;&lt;/span&gt;&lt;span style=&quot;margin: 0px; padding: 0px; border: 0px; font-family: &amp;quot;gg mono&amp;quot;, &amp;quot;Source Code Pro&amp;quot;, Consolas, &amp;quot;Andale Mono WT&amp;quot;, &amp;quot;Andale Mono&amp;quot;, &amp;quot;Lucida Console&amp;quot;, &amp;quot;Lucida Sans Typewriter&amp;quot;, &amp;quot;DejaVu Sans Mono&amp;quot;, &amp;quot;Bitstream Vera Sans Mono&amp;quot;, &amp;quot;Liberation Mono&amp;quot;, &amp;quot;Nimbus Mono L&amp;quot;, Monaco, &amp;quot;Courier New&amp;quot;, Courier, monospace; font-size: 14px; vertical-align: baseline; outline: 0px; color: rgb(115, 92, 15); white-space-collapse: preserve;&quot; class=&quot;hljs-bullet&quot;&gt;        -&lt;/span&gt;&lt;span style=&quot;color: oklab(0.321088 -0.000220731 -0.00934622); font-family: &amp;quot;gg mono&amp;quot;, &amp;quot;Source Code Pro&amp;quot;, Consolas, &amp;quot;Andale Mono WT&amp;quot;, &amp;quot;Andale Mono&amp;quot;, &amp;quot;Lucida Console&amp;quot;, &amp;quot;Lucida Sans Typewriter&amp;quot;, &amp;quot;DejaVu Sans Mono&amp;quot;, &amp;quot;Bitstream Vera Sans Mono&amp;quot;, &amp;quot;Liberation Mono&amp;quot;, &amp;quot;Nimbus Mono L&amp;quot;, Monaco, &amp;quot;Courier New&amp;quot;, Courier, monospace; font-size: 14px; white-space-collapse: preserve; background-color: oklab(0.963963 -0.000228554 -0.00283051);&quot;&gt; Users&lt;br&gt;&lt;/span&gt;&lt;span style=&quot;margin: 0px; padding: 0px; border: 0px; font-family: &amp;quot;gg mono&amp;quot;, &amp;quot;Source Code Pro&amp;quot;, Consolas, &amp;quot;Andale Mono WT&amp;quot;, &amp;quot;Andale Mono&amp;quot;, &amp;quot;Lucida Console&amp;quot;, &amp;quot;Lucida Sans Typewriter&amp;quot;, &amp;quot;DejaVu Sans Mono&amp;quot;, &amp;quot;Bitstream Vera Sans Mono&amp;quot;, &amp;quot;Liberation Mono&amp;quot;, &amp;quot;Nimbus Mono L&amp;quot;, Monaco, &amp;quot;Courier New&amp;quot;, Courier, monospace; font-size: 14px; vertical-align: baseline; outline: 0px; color: rgb(115, 92, 15); white-space-collapse: preserve;&quot; class=&quot;hljs-bullet&quot;&gt;        -&lt;/span&gt;&lt;span style=&quot;color: oklab(0.321088 -0.000220731 -0.00934622); font-family: &amp;quot;gg mono&amp;quot;, &amp;quot;Source Code Pro&amp;quot;, Consolas, &amp;quot;Andale Mono WT&amp;quot;, &amp;quot;Andale Mono&amp;quot;, &amp;quot;Lucida Console&amp;quot;, &amp;quot;Lucida Sans Typewriter&amp;quot;, &amp;quot;DejaVu Sans Mono&amp;quot;, &amp;quot;Bitstream Vera Sans Mono&amp;quot;, &amp;quot;Liberation Mono&amp;quot;, &amp;quot;Nimbus Mono L&amp;quot;, Monaco, &amp;quot;Courier New&amp;quot;, Courier, monospace; font-size: 14px; white-space-collapse: preserve; background-color: oklab(0.963963 -0.000228554 -0.00283051);&quot;&gt; Mangas&lt;br&gt;&lt;/span&gt;&lt;span style=&quot;margin: 0px; padding: 0px; border: 0px; font-family: &amp;quot;gg mono&amp;quot;, &amp;quot;Source Code Pro&amp;quot;, Consolas, &amp;quot;Andale Mono WT&amp;quot;, &amp;quot;Andale Mono&amp;quot;, &amp;quot;Lucida Console&amp;quot;, &amp;quot;Lucida Sans Typewriter&amp;quot;, &amp;quot;DejaVu Sans Mono&amp;quot;, &amp;quot;Bitstream Vera Sans Mono&amp;quot;, &amp;quot;Liberation Mono&amp;quot;, &amp;quot;Nimbus Mono L&amp;quot;, Monaco, &amp;quot;Courier New&amp;quot;, Courier, monospace; font-size: 14px; vertical-align: baseline; outline: 0px; color: rgb(115, 92, 15); white-space-collapse: preserve;&quot; class=&quot;hljs-bullet&quot;&gt;    -&lt;/span&gt;&lt;span style=&quot;color: oklab(0.321088 -0.000220731 -0.00934622); font-family: &amp;quot;gg mono&amp;quot;, &amp;quot;Source Code Pro&amp;quot;, Consolas, &amp;quot;Andale Mono WT&amp;quot;, &amp;quot;Andale Mono&amp;quot;, &amp;quot;Lucida Console&amp;quot;, &amp;quot;Lucida Sans Typewriter&amp;quot;, &amp;quot;DejaVu Sans Mono&amp;quot;, &amp;quot;Bitstream Vera Sans Mono&amp;quot;, &amp;quot;Liberation Mono&amp;quot;, &amp;quot;Nimbus Mono L&amp;quot;, Monaco, &amp;quot;Courier New&amp;quot;, Courier, monospace; font-size: 14px; white-space-collapse: preserve; background-color: oklab(0.963963 -0.000228554 -0.00283051);&quot;&gt; Edit&lt;br&gt;&lt;/span&gt;&lt;span style=&quot;margin: 0px; padding: 0px; border: 0px; font-family: &amp;quot;gg mono&amp;quot;, &amp;quot;Source Code Pro&amp;quot;, Consolas, &amp;quot;Andale Mono WT&amp;quot;, &amp;quot;Andale Mono&amp;quot;, &amp;quot;Lucida Console&amp;quot;, &amp;quot;Lucida Sans Typewriter&amp;quot;, &amp;quot;DejaVu Sans Mono&amp;quot;, &amp;quot;Bitstream Vera Sans Mono&amp;quot;, &amp;quot;Liberation Mono&amp;quot;, &amp;quot;Nimbus Mono L&amp;quot;, Monaco, &amp;quot;Courier New&amp;quot;, Courier, monospace; font-size: 14px; vertical-align: baseline; outline: 0px; color: rgb(115, 92, 15); white-space-collapse: preserve;&quot; class=&quot;hljs-bullet&quot;&gt;        -&lt;/span&gt;&lt;span style=&quot;color: oklab(0.321088 -0.000220731 -0.00934622); font-family: &amp;quot;gg mono&amp;quot;, &amp;quot;Source Code Pro&amp;quot;, Consolas, &amp;quot;Andale Mono WT&amp;quot;, &amp;quot;Andale Mono&amp;quot;, &amp;quot;Lucida Console&amp;quot;, &amp;quot;Lucida Sans Typewriter&amp;quot;, &amp;quot;DejaVu Sans Mono&amp;quot;, &amp;quot;Bitstream Vera Sans Mono&amp;quot;, &amp;quot;Liberation Mono&amp;quot;, &amp;quot;Nimbus Mono L&amp;quot;, Monaco, &amp;quot;Courier New&amp;quot;, Courier, monospace; font-size: 14px; white-space-collapse: preserve; background-color: oklab(0.963963 -0.000228554 -0.00283051);&quot;&gt; Create mandga/Uplad pages&lt;br&gt;&lt;/span&gt;&lt;span style=&quot;margin: 0px; padding: 0px; border: 0px; font-family: &amp;quot;gg mono&amp;quot;, &amp;quot;Source Code Pro&amp;quot;, Consolas, &amp;quot;Andale Mono WT&amp;quot;, &amp;quot;Andale Mono&amp;quot;, &amp;quot;Lucida Console&amp;quot;, &amp;quot;Lucida Sans Typewriter&amp;quot;, &amp;quot;DejaVu Sans Mono&amp;quot;, &amp;quot;Bitstream Vera Sans Mono&amp;quot;, &amp;quot;Liberation Mono&amp;quot;, &amp;quot;Nimbus Mono L&amp;quot;, Monaco, &amp;quot;Courier New&amp;quot;, Courier, monospace; font-size: 14px; vertical-align: baseline; outline: 0px; color: rgb(115, 92, 15); white-space-collapse: preserve;&quot; class=&quot;hljs-bullet&quot;&gt;        -&lt;/span&gt;&lt;span style=&quot;color: oklab(0.321088 -0.000220731 -0.00934622); font-family: &amp;quot;gg mono&amp;quot;, &amp;quot;Source Code Pro&amp;quot;, Consolas, &amp;quot;Andale Mono WT&amp;quot;, &amp;quot;Andale Mono&amp;quot;, &amp;quot;Lucida Console&amp;quot;, &amp;quot;Lucida Sans Typewriter&amp;quot;, &amp;quot;DejaVu Sans Mono&amp;quot;, &amp;quot;Bitstream Vera Sans Mono&amp;quot;, &amp;quot;Liberation Mono&amp;quot;, &amp;quot;Nimbus Mono L&amp;quot;, Monaco, &amp;quot;Courier New&amp;quot;, Courier, monospace; font-size: 14px; white-space-collapse: preserve; background-color: oklab(0.963963 -0.000228554 -0.00283051);&quot;&gt; Translate&lt;br&gt;&lt;/span&gt;&lt;span style=&quot;margin: 0px; padding: 0px; border: 0px; font-family: &amp;quot;gg mono&amp;quot;, &amp;quot;Source Code Pro&amp;quot;, Consolas, &amp;quot;Andale Mono WT&amp;quot;, &amp;quot;Andale Mono&amp;quot;, &amp;quot;Lucida Console&amp;quot;, &amp;quot;Lucida Sans Typewriter&amp;quot;, &amp;quot;DejaVu Sans Mono&amp;quot;, &amp;quot;Bitstream Vera Sans Mono&amp;quot;, &amp;quot;Liberation Mono&amp;quot;, &amp;quot;Nimbus Mono L&amp;quot;, Monaco, &amp;quot;Courier New&amp;quot;, Courier, monospace; font-size: 14px; vertical-align: baseline; outline: 0px; color: rgb(115, 92, 15); white-space-collapse: preserve;&quot; class=&quot;hljs-bullet&quot;&gt;        -&lt;/span&gt;&lt;span style=&quot;color: oklab(0.321088 -0.000220731 -0.00934622); font-family: &amp;quot;gg mono&amp;quot;, &amp;quot;Source Code Pro&amp;quot;, Consolas, &amp;quot;Andale Mono WT&amp;quot;, &amp;quot;Andale Mono&amp;quot;, &amp;quot;Lucida Console&amp;quot;, &amp;quot;Lucida Sans Typewriter&amp;quot;, &amp;quot;DejaVu Sans Mono&amp;quot;, &amp;quot;Bitstream Vera Sans Mono&amp;quot;, &amp;quot;Liberation Mono&amp;quot;, &amp;quot;Nimbus Mono L&amp;quot;, Monaco, &amp;quot;Courier New&amp;quot;, Courier, monospace; font-size: 14px; white-space-collapse: preserve; background-color: oklab(0.963963 -0.000228554 -0.00283051);&quot;&gt; Proofreed&lt;br&gt;&lt;/span&gt;&lt;span style=&quot;margin: 0px; padding: 0px; border: 0px; font-family: &amp;quot;gg mono&amp;quot;, &amp;quot;Source Code Pro&amp;quot;, Consolas, &amp;quot;Andale Mono WT&amp;quot;, &amp;quot;Andale Mono&amp;quot;, &amp;quot;Lucida Console&amp;quot;, &amp;quot;Lucida Sans Typewriter&amp;quot;, &amp;quot;DejaVu Sans Mono&amp;quot;, &amp;quot;Bitstream Vera Sans Mono&amp;quot;, &amp;quot;Liberation Mono&amp;quot;, &amp;quot;Nimbus Mono L&amp;quot;, Monaco, &amp;quot;Courier New&amp;quot;, Courier, monospace; font-size: 14px; vertical-align: baseline; outline: 0px; color: rgb(115, 92, 15); white-space-collapse: preserve;&quot; class=&quot;hljs-bullet&quot;&gt;        -&lt;/span&gt;&lt;span style=&quot;color: oklab(0.321088 -0.000220731 -0.00934622); font-family: &amp;quot;gg mono&amp;quot;, &amp;quot;Source Code Pro&amp;quot;, Consolas, &amp;quot;Andale Mono WT&amp;quot;, &amp;quot;Andale Mono&amp;quot;, &amp;quot;Lucida Console&amp;quot;, &amp;quot;Lucida Sans Typewriter&amp;quot;, &amp;quot;DejaVu Sans Mono&amp;quot;, &amp;quot;Bitstream Vera Sans Mono&amp;quot;, &amp;quot;Liberation Mono&amp;quot;, &amp;quot;Nimbus Mono L&amp;quot;, Monaco, &amp;quot;Courier New&amp;quot;, Courier, monospace; font-size: 14px; white-space-collapse: preserve; background-color: oklab(0.963963 -0.000228554 -0.00283051);&quot;&gt; Etc..&lt;br&gt;&lt;/span&gt;&lt;span style=&quot;margin: 0px; padding: 0px; border: 0px; font-family: &amp;quot;gg mono&amp;quot;, &amp;quot;Source Code Pro&amp;quot;, Consolas, &amp;quot;Andale Mono WT&amp;quot;, &amp;quot;Andale Mono&amp;quot;, &amp;quot;Lucida Console&amp;quot;, &amp;quot;Lucida Sans Typewriter&amp;quot;, &amp;quot;DejaVu Sans Mono&amp;quot;, &amp;quot;Bitstream Vera Sans Mono&amp;quot;, &amp;quot;Liberation Mono&amp;quot;, &amp;quot;Nimbus Mono L&amp;quot;, Monaco, &amp;quot;Courier New&amp;quot;, Courier, monospace; font-size: 14px; vertical-align: baseline; outline: 0px; color: rgb(115, 92, 15); white-space-collapse: preserve;&quot; class=&quot;hljs-bullet&quot;&gt;    -&lt;/span&gt;&lt;span style=&quot;color: oklab(0.321088 -0.000220731 -0.00934622); font-family: &amp;quot;gg mono&amp;quot;, &amp;quot;Source Code Pro&amp;quot;, Consolas, &amp;quot;Andale Mono WT&amp;quot;, &amp;quot;Andale Mono&amp;quot;, &amp;quot;Lucida Console&amp;quot;, &amp;quot;Lucida Sans Typewriter&amp;quot;, &amp;quot;DejaVu Sans Mono&amp;quot;, &amp;quot;Bitstream Vera Sans Mono&amp;quot;, &amp;quot;Liberation Mono&amp;quot;, &amp;quot;Nimbus Mono L&amp;quot;, Monaco, &amp;quot;Courier New&amp;quot;, Courier, monospace; font-size: 14px; white-space-collapse: preserve; background-color: oklab(0.963963 -0.000228554 -0.00283051);&quot;&gt; View/Read manga&lt;br&gt;&lt;br&gt;&lt;/span&gt;&lt;span style=&quot;margin: 0px; padding: 0px; border: 0px; font-weight: 700; font-family: &amp;quot;gg mono&amp;quot;, &amp;quot;Source Code Pro&amp;quot;, Consolas, &amp;quot;Andale Mono WT&amp;quot;, &amp;quot;Andale Mono&amp;quot;, &amp;quot;Lucida Console&amp;quot;, &amp;quot;Lucida Sans Typewriter&amp;quot;, &amp;quot;DejaVu Sans Mono&amp;quot;, &amp;quot;Bitstream Vera Sans Mono&amp;quot;, &amp;quot;Liberation Mono&amp;quot;, &amp;quot;Nimbus Mono L&amp;quot;, Monaco, &amp;quot;Courier New&amp;quot;, Courier, monospace; font-size: 14px; vertical-align: baseline; outline: 0px; color: rgb(0, 92, 197); white-space-collapse: preserve;&quot; class=&quot;hljs-section&quot;&gt;## Backend:&lt;/span&gt;&lt;span style=&quot;color: oklab(0.321088 -0.000220731 -0.00934622); font-family: &amp;quot;gg mono&amp;quot;, &amp;quot;Source Code Pro&amp;quot;, Consolas, &amp;quot;Andale Mono WT&amp;quot;, &amp;quot;Andale Mono&amp;quot;, &amp;quot;Lucida Console&amp;quot;, &amp;quot;Lucida Sans Typewriter&amp;quot;, &amp;quot;DejaVu Sans Mono&amp;quot;, &amp;quot;Bitstream Vera Sans Mono&amp;quot;, &amp;quot;Liberation Mono&amp;quot;, &amp;quot;Nimbus Mono L&amp;quot;, Monaco, &amp;quot;Courier New&amp;quot;, Courier, monospace; font-size: 14px; white-space-collapse: preserve; background-color: oklab(0.963963 -0.000228554 -0.00283051);&quot;&gt;&lt;br&gt;&lt;/span&gt;&lt;span style=&quot;margin: 0px; padding: 0px; border: 0px; font-family: &amp;quot;gg mono&amp;quot;, &amp;quot;Source Code Pro&amp;quot;, Consolas, &amp;quot;Andale Mono WT&amp;quot;, &amp;quot;Andale Mono&amp;quot;, &amp;quot;Lucida Console&amp;quot;, &amp;quot;Lucida Sans Typewriter&amp;quot;, &amp;quot;DejaVu Sans Mono&amp;quot;, &amp;quot;Bitstream Vera Sans Mono&amp;quot;, &amp;quot;Liberation Mono&amp;quot;, &amp;quot;Nimbus Mono L&amp;quot;, Monaco, &amp;quot;Courier New&amp;quot;, Courier, monospace; font-size: 14px; vertical-align: baseline; outline: 0px; color: rgb(115, 92, 15); white-space-collapse: preserve;&quot; class=&quot;hljs-bullet&quot;&gt;-&lt;/span&gt;&lt;span style=&quot;color: oklab(0.321088 -0.000220731 -0.00934622); font-family: &amp;quot;gg mono&amp;quot;, &amp;quot;Source Code Pro&amp;quot;, Consolas, &amp;quot;Andale Mono WT&amp;quot;, &amp;quot;Andale Mono&amp;quot;, &amp;quot;Lucida Console&amp;quot;, &amp;quot;Lucida Sans Typewriter&amp;quot;, &amp;quot;DejaVu Sans Mono&amp;quot;, &amp;quot;Bitstream Vera Sans Mono&amp;quot;, &amp;quot;Liberation Mono&amp;quot;, &amp;quot;Nimbus Mono L&amp;quot;, Monaco, &amp;quot;Courier New&amp;quot;, Courier, monospace; font-size: 14px; white-space-collapse: preserve; background-color: oklab(0.963963 -0.000228554 -0.00283051);&quot;&gt; Apis:&lt;br&gt;&lt;/span&gt;&lt;span style=&quot;margin: 0px; padding: 0px; border: 0px; font-family: &amp;quot;gg mono&amp;quot;, &amp;quot;Source Code Pro&amp;quot;, Consolas, &amp;quot;Andale Mono WT&amp;quot;, &amp;quot;Andale Mono&amp;quot;, &amp;quot;Lucida Console&amp;quot;, &amp;quot;Lucida Sans Typewriter&amp;quot;, &amp;quot;DejaVu Sans Mono&amp;quot;, &amp;quot;Bitstream Vera Sans Mono&amp;quot;, &amp;quot;Liberation Mono&amp;quot;, &amp;quot;Nimbus Mono L&amp;quot;, Monaco, &amp;quot;Courier New&amp;quot;, Courier, monospace; font-size: 14px; vertical-align: baseline; outline: 0px; color: rgb(115, 92, 15); white-space-collapse: preserve;&quot; class=&quot;hljs-bullet&quot;&gt;    -&lt;/span&gt;&lt;span style=&quot;color: oklab(0.321088 -0.000220731 -0.00934622); font-family: &amp;quot;gg mono&amp;quot;, &amp;quot;Source Code Pro&amp;quot;, Consolas, &amp;quot;Andale Mono WT&amp;quot;, &amp;quot;Andale Mono&amp;quot;, &amp;quot;Lucida Console&amp;quot;, &amp;quot;Lucida Sans Typewriter&amp;quot;, &amp;quot;DejaVu Sans Mono&amp;quot;, &amp;quot;Bitstream Vera Sans Mono&amp;quot;, &amp;quot;Liberation Mono&amp;quot;, &amp;quot;Nimbus Mono L&amp;quot;, Monaco, &amp;quot;Courier New&amp;quot;, Courier, monospace; font-size: 14px; white-space-collapse: preserve; background-color: oklab(0.963963 -0.000228554 -0.00283051);&quot;&gt; Login&lt;br&gt;&lt;/span&gt;&lt;span style=&quot;margin: 0px; padding: 0px; border: 0px; font-family: &amp;quot;gg mono&amp;quot;, &amp;quot;Source Code Pro&amp;quot;, Consolas, &amp;quot;Andale Mono WT&amp;quot;, &amp;quot;Andale Mono&amp;quot;, &amp;quot;Lucida Console&amp;quot;, &amp;quot;Lucida Sans Typewriter&amp;quot;, &amp;quot;DejaVu Sans Mono&amp;quot;, &amp;quot;Bitstream Vera Sans Mono&amp;quot;, &amp;quot;Liberation Mono&amp;quot;, &amp;quot;Nimbus Mono L&amp;quot;, Monaco, &amp;quot;Courier New&amp;quot;, Courier, monospace; font-size: 14px; vertical-align: baseline; outline: 0px; color: rgb(115, 92, 15); white-space-collapse: preserve;&quot; class=&quot;hljs-bullet&quot;&gt;    -&lt;/span&gt;&lt;span style=&quot;color: oklab(0.321088 -0.000220731 -0.00934622); font-family: &amp;quot;gg mono&amp;quot;, &amp;quot;Source Code Pro&amp;quot;, Consolas, &amp;quot;Andale Mono WT&amp;quot;, &amp;quot;Andale Mono&amp;quot;, &amp;quot;Lucida Console&amp;quot;, &amp;quot;Lucida Sans Typewriter&amp;quot;, &amp;quot;DejaVu Sans Mono&amp;quot;, &amp;quot;Bitstream Vera Sans Mono&amp;quot;, &amp;quot;Liberation Mono&amp;quot;, &amp;quot;Nimbus Mono L&amp;quot;, Monaco, &amp;quot;Courier New&amp;quot;, Courier, monospace; font-size: 14px; white-space-collapse: preserve; background-color: oklab(0.963963 -0.000228554 -0.00283051);&quot;&gt; Logout&lt;br&gt;&lt;/span&gt;&lt;span style=&quot;margin: 0px; padding: 0px; border: 0px; font-family: &amp;quot;gg mono&amp;quot;, &amp;quot;Source Code Pro&amp;quot;, Consolas, &amp;quot;Andale Mono WT&amp;quot;, &amp;quot;Andale Mono&amp;quot;, &amp;quot;Lucida Console&amp;quot;, &amp;quot;Lucida Sans Typewriter&amp;quot;, &amp;quot;DejaVu Sans Mono&amp;quot;, &amp;quot;Bitstream Vera Sans Mono&amp;quot;, &amp;quot;Liberation Mono&amp;quot;, &amp;quot;Nimbus Mono L&amp;quot;, Monaco, &amp;quot;Courier New&amp;quot;, Courier, monospace; font-size: 14px; vertical-align: baseline; outline: 0px; color: rgb(115, 92, 15); white-space-collapse: preserve;&quot; class=&quot;hljs-bullet&quot;&gt;    -&lt;/span&gt;&lt;span style=&quot;color: oklab(0.321088 -0.000220731 -0.00934622); font-family: &amp;quot;gg mono&amp;quot;, &amp;quot;Source Code Pro&amp;quot;, Consolas, &amp;quot;Andale Mono WT&amp;quot;, &amp;quot;Andale Mono&amp;quot;, &amp;quot;Lucida Console&amp;quot;, &amp;quot;Lucida Sans Typewriter&amp;quot;, &amp;quot;DejaVu Sans Mono&amp;quot;, &amp;quot;Bitstream Vera Sans Mono&amp;quot;, &amp;quot;Liberation Mono&amp;quot;, &amp;quot;Nimbus Mono L&amp;quot;, Monaco, &amp;quot;Courier New&amp;quot;, Courier, monospace; font-size: 14px; white-space-collapse: preserve; background-color: oklab(0.963963 -0.000228554 -0.00283051);&quot;&gt; Pages&lt;br&gt;&lt;/span&gt;&lt;span style=&quot;margin: 0px; padding: 0px; border: 0px; font-family: &amp;quot;gg mono&amp;quot;, &amp;quot;Source Code Pro&amp;quot;, Consolas, &amp;quot;Andale Mono WT&amp;quot;, &amp;quot;Andale Mono&amp;quot;, &amp;quot;Lucida Console&amp;quot;, &amp;quot;Lucida Sans Typewriter&amp;quot;, &amp;quot;DejaVu Sans Mono&amp;quot;, &amp;quot;Bitstream Vera Sans Mono&amp;quot;, &amp;quot;Liberation Mono&amp;quot;, &amp;quot;Nimbus Mono L&amp;quot;, Monaco, &amp;quot;Courier New&amp;quot;, Courier, monospace; font-size: 14px; vertical-align: baseline; outline: 0px; color: rgb(115, 92, 15); white-space-collapse: preserve;&quot; class=&quot;hljs-bullet&quot;&gt;        -&lt;/span&gt;&lt;span style=&quot;color: oklab(0.321088 -0.000220731 -0.00934622); font-family: &amp;quot;gg mono&amp;quot;, &amp;quot;Source Code Pro&amp;quot;, Consolas, &amp;quot;Andale Mono WT&amp;quot;, &amp;quot;Andale Mono&amp;quot;, &amp;quot;Lucida Console&amp;quot;, &amp;quot;Lucida Sans Typewriter&amp;quot;, &amp;quot;DejaVu Sans Mono&amp;quot;, &amp;quot;Bitstream Vera Sans Mono&amp;quot;, &amp;quot;Liberation Mono&amp;quot;, &amp;quot;Nimbus Mono L&amp;quot;, Monaco, &amp;quot;Courier New&amp;quot;, Courier, monospace; font-size: 14px; white-space-collapse: preserve; background-color: oklab(0.963963 -0.000228554 -0.00283051);&quot;&gt; Crud&lt;br&gt;&lt;br&gt;&lt;/span&gt;&lt;span style=&quot;margin: 0px; padding: 0px; border: 0px; font-weight: 700; font-family: &amp;quot;gg mono&amp;quot;, &amp;quot;Source Code Pro&amp;quot;, Consolas, &amp;quot;Andale Mono WT&amp;quot;, &amp;quot;Andale Mono&amp;quot;, &amp;quot;Lucida Console&amp;quot;, &amp;quot;Lucida Sans Typewriter&amp;quot;, &amp;quot;DejaVu Sans Mono&amp;quot;, &amp;quot;Bitstream Vera Sans Mono&amp;quot;, &amp;quot;Liberation Mono&amp;quot;, &amp;quot;Nimbus Mono L&amp;quot;, Monaco, &amp;quot;Courier New&amp;quot;, Courier, monospace; font-size: 14px; vertical-align: baseline; outline: 0px; color: rgb(0, 92, 197); white-space-collapse: preserve;&quot; class=&quot;hljs-section&quot;&gt;## First:&lt;/span&gt;&lt;span style=&quot;color: oklab(0.321088 -0.000220731 -0.00934622); font-family: &amp;quot;gg mono&amp;quot;, &amp;quot;Source Code Pro&amp;quot;, Consolas, &amp;quot;Andale Mono WT&amp;quot;, &amp;quot;Andale Mono&amp;quot;, &amp;quot;Lucida Console&amp;quot;, &amp;quot;Lucida Sans Typewriter&amp;quot;, &amp;quot;DejaVu Sans Mono&amp;quot;, &amp;quot;Bitstream Vera Sans Mono&amp;quot;, &amp;quot;Liberation Mono&amp;quot;, &amp;quot;Nimbus Mono L&amp;quot;, Monaco, &amp;quot;Courier New&amp;quot;, Courier, monospace; font-size: 14px; white-space-collapse: preserve; background-color: oklab(0.963963 -0.000228554 -0.00283051);&quot;&gt;&lt;br&gt;&lt;/span&gt;&lt;span style=&quot;margin: 0px; padding: 0px; border: 0px; font-family: &amp;quot;gg mono&amp;quot;, &amp;quot;Source Code Pro&amp;quot;, Consolas, &amp;quot;Andale Mono WT&amp;quot;, &amp;quot;Andale Mono&amp;quot;, &amp;quot;Lucida Console&amp;quot;, &amp;quot;Lucida Sans Typewriter&amp;quot;, &amp;quot;DejaVu Sans Mono&amp;quot;, &amp;quot;Bitstream Vera Sans Mono&amp;quot;, &amp;quot;Liberation Mono&amp;quot;, &amp;quot;Nimbus Mono L&amp;quot;, Monaco, &amp;quot;Courier New&amp;quot;, Courier, monospace; font-size: 14px; vertical-align: baseline; outline: 0px; color: rgb(115, 92, 15); white-space-collapse: preserve;&quot; class=&quot;hljs-bullet&quot;&gt;-&lt;/span&gt;&lt;span style=&quot;color: oklab(0.321088 -0.000220731 -0.00934622); font-family: &amp;quot;gg mono&amp;quot;, &amp;quot;Source Code Pro&amp;quot;, Consolas, &amp;quot;Andale Mono WT&amp;quot;, &amp;quot;Andale Mono&amp;quot;, &amp;quot;Lucida Console&amp;quot;, &amp;quot;Lucida Sans Typewriter&amp;quot;, &amp;quot;DejaVu Sans Mono&amp;quot;, &amp;quot;Bitstream Vera Sans Mono&amp;quot;, &amp;quot;Liberation Mono&amp;quot;, &amp;quot;Nimbus Mono L&amp;quot;, Monaco, &amp;quot;Courier New&amp;quot;, Courier, monospace; font-size: 14px; white-space-collapse: preserve; background-color: oklab(0.963963 -0.000228554 -0.00283051);&quot;&gt; [ ] Multi user&lt;br&gt;&lt;/span&gt;&lt;span style=&quot;margin: 0px; padding: 0px; border: 0px; font-family: &amp;quot;gg mono&amp;quot;, &amp;quot;Source Code Pro&amp;quot;, Consolas, &amp;quot;Andale Mono WT&amp;quot;, &amp;quot;Andale Mono&amp;quot;, &amp;quot;Lucida Console&amp;quot;, &amp;quot;Lucida Sans Typewriter&amp;quot;, &amp;quot;DejaVu Sans Mono&amp;quot;, &amp;quot;Bitstream Vera Sans Mono&amp;quot;, &amp;quot;Liberation Mono&amp;quot;, &amp;quot;Nimbus Mono L&amp;quot;, Monaco, &amp;quot;Courier New&amp;quot;, Courier, monospace; font-size: 14px; vertical-align: baseline; outline: 0px; color: rgb(115, 92, 15); white-space-collapse: preserve;&quot; class=&quot;hljs-bullet&quot;&gt;-&lt;/span&gt;&lt;span style=&quot;color: oklab(0.321088 -0.000220731 -0.00934622); font-family: &amp;quot;gg mono&amp;quot;, &amp;quot;Source Code Pro&amp;quot;, Consolas, &amp;quot;Andale Mono WT&amp;quot;, &amp;quot;Andale Mono&amp;quot;, &amp;quot;Lucida Console&amp;quot;, &amp;quot;Lucida Sans Typewriter&amp;quot;, &amp;quot;DejaVu Sans Mono&amp;quot;, &amp;quot;Bitstream Vera Sans Mono&amp;quot;, &amp;quot;Liberation Mono&amp;quot;, &amp;quot;Nimbus Mono L&amp;quot;, Monaco, &amp;quot;Courier New&amp;quot;, Courier, monospace; font-size: 14px; white-space-collapse: preserve; background-color: oklab(0.963963 -0.000228554 -0.00283051);&quot;&gt; [ ] Multi role&lt;br&gt;&lt;/span&gt;&lt;span style=&quot;margin: 0px; padding: 0px; border: 0px; font-family: &amp;quot;gg mono&amp;quot;, &amp;quot;Source Code Pro&amp;quot;, Consolas, &amp;quot;Andale Mono WT&amp;quot;, &amp;quot;Andale Mono&amp;quot;, &amp;quot;Lucida Console&amp;quot;, &amp;quot;Lucida Sans Typewriter&amp;quot;, &amp;quot;DejaVu Sans Mono&amp;quot;, &amp;quot;Bitstream Vera Sans Mono&amp;quot;, &amp;quot;Liberation Mono&amp;quot;, &amp;quot;Nimbus Mono L&amp;quot;, Monaco, &amp;quot;Courier New&amp;quot;, Courier, monospace; font-size: 14px; vertical-align: baseline; outline: 0px; color: rgb(115, 92, 15); white-space-collapse: preserve;&quot; class=&quot;hljs-bullet&quot;&gt;-&lt;/span&gt;&lt;span style=&quot;color: oklab(0.321088 -0.000220731 -0.00934622); font-family: &amp;quot;gg mono&amp;quot;, &amp;quot;Source Code Pro&amp;quot;, Consolas, &amp;quot;Andale Mono WT&amp;quot;, &amp;quot;Andale Mono&amp;quot;, &amp;quot;Lucida Console&amp;quot;, &amp;quot;Lucida Sans Typewriter&amp;quot;, &amp;quot;DejaVu Sans Mono&amp;quot;, &amp;quot;Bitstream Vera Sans Mono&amp;quot;, &amp;quot;Liberation Mono&amp;quot;, &amp;quot;Nimbus Mono L&amp;quot;, Monaco, &amp;quot;Courier New&amp;quot;, Courier, monospace; font-size: 14px; white-space-collapse: preserve; background-color: oklab(0.963963 -0.000228554 -0.00283051);&quot;&gt; [ ] Galery&lt;br&gt;&lt;/span&gt;&lt;span style=&quot;margin: 0px; padding: 0px; border: 0px; font-family: &amp;quot;gg mono&amp;quot;, &amp;quot;Source Code Pro&amp;quot;, Consolas, &amp;quot;Andale Mono WT&amp;quot;, &amp;quot;Andale Mono&amp;quot;, &amp;quot;Lucida Console&amp;quot;, &amp;quot;Lucida Sans Typewriter&amp;quot;, &amp;quot;DejaVu Sans Mono&amp;quot;, &amp;quot;Bitstream Vera Sans Mono&amp;quot;, &amp;quot;Liberation Mono&amp;quot;, &amp;quot;Nimbus Mono L&amp;quot;, Monaco, &amp;quot;Courier New&amp;quot;, Courier, monospace; font-size: 14px; vertical-align: baseline; outline: 0px; color: rgb(115, 92, 15); white-space-collapse: preserve;&quot; class=&quot;hljs-bullet&quot;&gt;-&lt;/span&gt;&lt;span style=&quot;color: oklab(0.321088 -0.000220731 -0.00934622); font-family: &amp;quot;gg mono&amp;quot;, &amp;quot;Source Code Pro&amp;quot;, Consolas, &amp;quot;Andale Mono WT&amp;quot;, &amp;quot;Andale Mono&amp;quot;, &amp;quot;Lucida Console&amp;quot;, &amp;quot;Lucida Sans Typewriter&amp;quot;, &amp;quot;DejaVu Sans Mono&amp;quot;, &amp;quot;Bitstream Vera Sans Mono&amp;quot;, &amp;quot;Liberation Mono&amp;quot;, &amp;quot;Nimbus Mono L&amp;quot;, Monaco, &amp;quot;Courier New&amp;quot;, Courier, monospace; font-size: 14px; white-space-collapse: preserve; background-color: oklab(0.963963 -0.000228554 -0.00283051);&quot;&gt; [ ] Tags/author/etc.&lt;br&gt;&lt;/span&gt;&lt;span style=&quot;margin: 0px; padding: 0px; border: 0px; font-family: &amp;quot;gg mono&amp;quot;, &amp;quot;Source Code Pro&amp;quot;, Consolas, &amp;quot;Andale Mono WT&amp;quot;, &amp;quot;Andale Mono&amp;quot;, &amp;quot;Lucida Console&amp;quot;, &amp;quot;Lucida Sans Typewriter&amp;quot;, &amp;quot;DejaVu Sans Mono&amp;quot;, &amp;quot;Bitstream Vera Sans Mono&amp;quot;, &amp;quot;Liberation Mono&amp;quot;, &amp;quot;Nimbus Mono L&amp;quot;, Monaco, &amp;quot;Courier New&amp;quot;, Courier, monospace; font-size: 14px; vertical-align: baseline; outline: 0px; color: rgb(115, 92, 15); white-space-collapse: preserve;&quot; class=&quot;hljs-bullet&quot;&gt;-&lt;/span&gt;&lt;span style=&quot;color: oklab(0.321088 -0.000220731 -0.00934622); font-family: &amp;quot;gg mono&amp;quot;, &amp;quot;Source Code Pro&amp;quot;, Consolas, &amp;quot;Andale Mono WT&amp;quot;, &amp;quot;Andale Mono&amp;quot;, &amp;quot;Lucida Console&amp;quot;, &amp;quot;Lucida Sans Typewriter&amp;quot;, &amp;quot;DejaVu Sans Mono&amp;quot;, &amp;quot;Bitstream Vera Sans Mono&amp;quot;, &amp;quot;Liberation Mono&amp;quot;, &amp;quot;Nimbus Mono L&amp;quot;, Monaco, &amp;quot;Courier New&amp;quot;, Courier, monospace; font-size: 14px; white-space-collapse: preserve; background-color: oklab(0.963963 -0.000228554 -0.00283051);&quot;&gt; [ ] Search&lt;br&gt;&lt;/span&gt;&lt;span style=&quot;margin: 0px; padding: 0px; border: 0px; font-family: &amp;quot;gg mono&amp;quot;, &amp;quot;Source Code Pro&amp;quot;, Consolas, &amp;quot;Andale Mono WT&amp;quot;, &amp;quot;Andale Mono&amp;quot;, &amp;quot;Lucida Console&amp;quot;, &amp;quot;Lucida Sans Typewriter&amp;quot;, &amp;quot;DejaVu Sans Mono&amp;quot;, &amp;quot;Bitstream Vera Sans Mono&amp;quot;, &amp;quot;Liberation Mono&amp;quot;, &amp;quot;Nimbus Mono L&amp;quot;, Monaco, &amp;quot;Courier New&amp;quot;, Courier, monospace; font-size: 14px; vertical-align: baseline; outline: 0px; color: rgb(115, 92, 15); white-space-collapse: preserve;&quot; class=&quot;hljs-bullet&quot;&gt;-&lt;/span&gt;&lt;span style=&quot;color: oklab(0.321088 -0.000220731 -0.00934622); font-family: &amp;quot;gg mono&amp;quot;, &amp;quot;Source Code Pro&amp;quot;, Consolas, &amp;quot;Andale Mono WT&amp;quot;, &amp;quot;Andale Mono&amp;quot;, &amp;quot;Lucida Console&amp;quot;, &amp;quot;Lucida Sans Typewriter&amp;quot;, &amp;quot;DejaVu Sans Mono&amp;quot;, &amp;quot;Bitstream Vera Sans Mono&amp;quot;, &amp;quot;Liberation Mono&amp;quot;, &amp;quot;Nimbus Mono L&amp;quot;, Monaco, &amp;quot;Courier New&amp;quot;, Courier, monospace; font-size: 14px; white-space-collapse: preserve; background-color: oklab(0.963963 -0.000228554 -0.00283051);&quot;&gt; [ ] Like&lt;br&gt;&lt;/span&gt;&lt;span style=&quot;margin: 0px; padding: 0px; border: 0px; font-family: &amp;quot;gg mono&amp;quot;, &amp;quot;Source Code Pro&amp;quot;, Consolas, &amp;quot;Andale Mono WT&amp;quot;, &amp;quot;Andale Mono&amp;quot;, &amp;quot;Lucida Console&amp;quot;, &amp;quot;Lucida Sans Typewriter&amp;quot;, &amp;quot;DejaVu Sans Mono&amp;quot;, &amp;quot;Bitstream Vera Sans Mono&amp;quot;, &amp;quot;Liberation Mono&amp;quot;, &amp;quot;Nimbus Mono L&amp;quot;, Monaco, &amp;quot;Courier New&amp;quot;, Courier, monospace; font-size: 14px; vertical-align: baseline; outline: 0px; color: rgb(115, 92, 15); white-space-collapse: preserve;&quot; class=&quot;hljs-bullet&quot;&gt;-&lt;/span&gt;&lt;span style=&quot;color: oklab(0.321088 -0.000220731 -0.00934622); font-family: &amp;quot;gg mono&amp;quot;, &amp;quot;Source Code Pro&amp;quot;, Consolas, &amp;quot;Andale Mono WT&amp;quot;, &amp;quot;Andale Mono&amp;quot;, &amp;quot;Lucida Console&amp;quot;, &amp;quot;Lucida Sans Typewriter&amp;quot;, &amp;quot;DejaVu Sans Mono&amp;quot;, &amp;quot;Bitstream Vera Sans Mono&amp;quot;, &amp;quot;Liberation Mono&amp;quot;, &amp;quot;Nimbus Mono L&amp;quot;, Monaco, &amp;quot;Courier New&amp;quot;, Courier, monospace; font-size: 14px; white-space-collapse: preserve; background-color: oklab(0.963963 -0.000228554 -0.00283051);&quot;&gt; [ ] Score&lt;br&gt;&lt;/span&gt;&lt;span style=&quot;margin: 0px; padding: 0px; border: 0px; font-family: &amp;quot;gg mono&amp;quot;, &amp;quot;Source Code Pro&amp;quot;, Consolas, &amp;quot;Andale Mono WT&amp;quot;, &amp;quot;Andale Mono&amp;quot;, &amp;quot;Lucida Console&amp;quot;, &amp;quot;Lucida Sans Typewriter&amp;quot;, &amp;quot;DejaVu Sans Mono&amp;quot;, &amp;quot;Bitstream Vera Sans Mono&amp;quot;, &amp;quot;Liberation Mono&amp;quot;, &amp;quot;Nimbus Mono L&amp;quot;, Monaco, &amp;quot;Courier New&amp;quot;, Courier, monospace; font-size: 14px; vertical-align: baseline; outline: 0px; color: rgb(115, 92, 15); white-space-collapse: preserve;&quot; class=&quot;hljs-bullet&quot;&gt;-&lt;/span&gt;&lt;span style=&quot;color: oklab(0.321088 -0.000220731 -0.00934622); font-family: &amp;quot;gg mono&amp;quot;, &amp;quot;Source Code Pro&amp;quot;, Consolas, &amp;quot;Andale Mono WT&amp;quot;, &amp;quot;Andale Mono&amp;quot;, &amp;quot;Lucida Console&amp;quot;, &amp;quot;Lucida Sans Typewriter&amp;quot;, &amp;quot;DejaVu Sans Mono&amp;quot;, &amp;quot;Bitstream Vera Sans Mono&amp;quot;, &amp;quot;Liberation Mono&amp;quot;, &amp;quot;Nimbus Mono L&amp;quot;, Monaco, &amp;quot;Courier New&amp;quot;, Courier, monospace; font-size: 14px; white-space-collapse: preserve; background-color: oklab(0.963963 -0.000228554 -0.00283051);&quot;&gt; [ ] View count&lt;br&gt;&lt;/span&gt;&lt;span style=&quot;margin: 0px; padding: 0px; border: 0px; font-family: &amp;quot;gg mono&amp;quot;, &amp;quot;Source Code Pro&amp;quot;, Consolas, &amp;quot;Andale Mono WT&amp;quot;, &amp;quot;Andale Mono&amp;quot;, &amp;quot;Lucida Console&amp;quot;, &amp;quot;Lucida Sans Typewriter&amp;quot;, &amp;quot;DejaVu Sans Mono&amp;quot;, &amp;quot;Bitstream Vera Sans Mono&amp;quot;, &amp;quot;Liberation Mono&amp;quot;, &amp;quot;Nimbus Mono L&amp;quot;, Monaco, &amp;quot;Courier New&amp;quot;, Courier, monospace; font-size: 14px; vertical-align: baseline; outline: 0px; color: rgb(115, 92, 15); white-space-collapse: preserve;&quot; class=&quot;hljs-bullet&quot;&gt;-&lt;/span&gt;&lt;span style=&quot;color: oklab(0.321088 -0.000220731 -0.00934622); font-family: &amp;quot;gg mono&amp;quot;, &amp;quot;Source Code Pro&amp;quot;, Consolas, &amp;quot;Andale Mono WT&amp;quot;, &amp;quot;Andale Mono&amp;quot;, &amp;quot;Lucida Console&amp;quot;, &amp;quot;Lucida Sans Typewriter&amp;quot;, &amp;quot;DejaVu Sans Mono&amp;quot;, &amp;quot;Bitstream Vera Sans Mono&amp;quot;, &amp;quot;Liberation Mono&amp;quot;, &amp;quot;Nimbus Mono L&amp;quot;, Monaco, &amp;quot;Courier New&amp;quot;, Courier, monospace; font-size: 14px; white-space-collapse: preserve; background-color: oklab(0.963963 -0.000228554 -0.00283051);&quot;&gt; [ ] Public/Private manga for translation process&lt;br&gt;&lt;/span&gt;&lt;span style=&quot;margin: 0px; padding: 0px; border: 0px; font-family: &amp;quot;gg mono&amp;quot;, &amp;quot;Source Code Pro&amp;quot;, Consolas, &amp;quot;Andale Mono WT&amp;quot;, &amp;quot;Andale Mono&amp;quot;, &amp;quot;Lucida Console&amp;quot;, &amp;quot;Lucida Sans Typewriter&amp;quot;, &amp;quot;DejaVu Sans Mono&amp;quot;, &amp;quot;Bitstream Vera Sans Mono&amp;quot;, &amp;quot;Liberation Mono&amp;quot;, &amp;quot;Nimbus Mono L&amp;quot;, Monaco, &amp;quot;Courier New&amp;quot;, Courier, monospace; font-size: 14px; vertical-align: baseline; outline: 0px; color: rgb(115, 92, 15); white-space-collapse: preserve;&quot; class=&quot;hljs-bullet&quot;&gt;-&lt;/span&gt;&lt;span style=&quot;color: oklab(0.321088 -0.000220731 -0.00934622); font-family: &amp;quot;gg mono&amp;quot;, &amp;quot;Source Code Pro&amp;quot;, Consolas, &amp;quot;Andale Mono WT&amp;quot;, &amp;quot;Andale Mono&amp;quot;, &amp;quot;Lucida Console&amp;quot;, &amp;quot;Lucida Sans Typewriter&amp;quot;, &amp;quot;DejaVu Sans Mono&amp;quot;, &amp;quot;Bitstream Vera Sans Mono&amp;quot;, &amp;quot;Liberation Mono&amp;quot;, &amp;quot;Nimbus Mono L&amp;quot;, Monaco, &amp;quot;Courier New&amp;quot;, Courier, monospace; font-size: 14px; white-space-collapse: preserve; background-color: oklab(0.963963 -0.000228554 -0.00283051);&quot;&gt; [ ] Translation process and progress view&lt;br&gt;&lt;/span&gt;&lt;span style=&quot;margin: 0px; padding: 0px; border: 0px; font-family: &amp;quot;gg mono&amp;quot;, &amp;quot;Source Code Pro&amp;quot;, Consolas, &amp;quot;Andale Mono WT&amp;quot;, &amp;quot;Andale Mono&amp;quot;, &amp;quot;Lucida Console&amp;quot;, &amp;quot;Lucida Sans Typewriter&amp;quot;, &amp;quot;DejaVu Sans Mono&amp;quot;, &amp;quot;Bitstream Vera Sans Mono&amp;quot;, &amp;quot;Liberation Mono&amp;quot;, &amp;quot;Nimbus Mono L&amp;quot;, Monaco, &amp;quot;Courier New&amp;quot;, Courier, monospace; font-size: 14px; vertical-align: baseline; outline: 0px; color: rgb(115, 92, 15); white-space-collapse: preserve;&quot; class=&quot;hljs-bullet&quot;&gt;-&lt;/span&gt;&lt;span style=&quot;color: oklab(0.321088 -0.000220731 -0.00934622); font-family: &amp;quot;gg mono&amp;quot;, &amp;quot;Source Code Pro&amp;quot;, Consolas, &amp;quot;Andale Mono WT&amp;quot;, &amp;quot;Andale Mono&amp;quot;, &amp;quot;Lucida Console&amp;quot;, &amp;quot;Lucida Sans Typewriter&amp;quot;, &amp;quot;DejaVu Sans Mono&amp;quot;, &amp;quot;Bitstream Vera Sans Mono&amp;quot;, &amp;quot;Liberation Mono&amp;quot;, &amp;quot;Nimbus Mono L&amp;quot;, Monaco, &amp;quot;Courier New&amp;quot;, Courier, monospace; font-size: 14px; white-space-collapse: preserve; background-color: oklab(0.963963 -0.000228554 -0.00283051);&quot;&gt; [ ] Nsfw hide/unhide - save with login&lt;br&gt;&lt;/span&gt;&lt;span style=&quot;margin: 0px; padding: 0px; border: 0px; font-family: &amp;quot;gg mono&amp;quot;, &amp;quot;Source Code Pro&amp;quot;, Consolas, &amp;quot;Andale Mono WT&amp;quot;, &amp;quot;Andale Mono&amp;quot;, &amp;quot;Lucida Console&amp;quot;, &amp;quot;Lucida Sans Typewriter&amp;quot;, &amp;quot;DejaVu Sans Mono&amp;quot;, &amp;quot;Bitstream Vera Sans Mono&amp;quot;, &amp;quot;Liberation Mono&amp;quot;, &amp;quot;Nimbus Mono L&amp;quot;, Monaco, &amp;quot;Courier New&amp;quot;, Courier, monospace; font-size: 14px; vertical-align: baseline; outline: 0px; color: rgb(115, 92, 15); white-space-collapse: preserve;&quot; class=&quot;hljs-bullet&quot;&gt;-&lt;/span&gt;&lt;span style=&quot;color: oklab(0.321088 -0.000220731 -0.00934622); font-family: &amp;quot;gg mono&amp;quot;, &amp;quot;Source Code Pro&amp;quot;, Consolas, &amp;quot;Andale Mono WT&amp;quot;, &amp;quot;Andale Mono&amp;quot;, &amp;quot;Lucida Console&amp;quot;, &amp;quot;Lucida Sans Typewriter&amp;quot;, &amp;quot;DejaVu Sans Mono&amp;quot;, &amp;quot;Bitstream Vera Sans Mono&amp;quot;, &amp;quot;Liberation Mono&amp;quot;, &amp;quot;Nimbus Mono L&amp;quot;, Monaco, &amp;quot;Courier New&amp;quot;, Courier, monospace; font-size: 14px; white-space-collapse: preserve; background-color: oklab(0.963963 -0.000228554 -0.00283051);&quot;&gt; [ ] &lt;br&gt;&lt;br&gt;&lt;/span&gt;&lt;span style=&quot;margin: 0px; padding: 0px; border: 0px; font-weight: 700; font-family: &amp;quot;gg mono&amp;quot;, &amp;quot;Source Code Pro&amp;quot;, Consolas, &amp;quot;Andale Mono WT&amp;quot;, &amp;quot;Andale Mono&amp;quot;, &amp;quot;Lucida Console&amp;quot;, &amp;quot;Lucida Sans Typewriter&amp;quot;, &amp;quot;DejaVu Sans Mono&amp;quot;, &amp;quot;Bitstream Vera Sans Mono&amp;quot;, &amp;quot;Liberation Mono&amp;quot;, &amp;quot;Nimbus Mono L&amp;quot;, Monaco, &amp;quot;Courier New&amp;quot;, Courier, monospace; font-size: 14px; vertical-align: baseline; outline: 0px; color: rgb(0, 92, 197); white-space-collapse: preserve;&quot; class=&quot;hljs-section&quot;&gt;## Roles:&lt;/span&gt;&lt;span style=&quot;color: oklab(0.321088 -0.000220731 -0.00934622); font-family: &amp;quot;gg mono&amp;quot;, &amp;quot;Source Code Pro&amp;quot;, Consolas, &amp;quot;Andale Mono WT&amp;quot;, &amp;quot;Andale Mono&amp;quot;, &amp;quot;Lucida Console&amp;quot;, &amp;quot;Lucida Sans Typewriter&amp;quot;, &amp;quot;DejaVu Sans Mono&amp;quot;, &amp;quot;Bitstream Vera Sans Mono&amp;quot;, &amp;quot;Liberation Mono&amp;quot;, &amp;quot;Nimbus Mono L&amp;quot;, Monaco, &amp;quot;Courier New&amp;quot;, Courier, monospace; font-size: 14px; white-space-collapse: preserve; background-color: oklab(0.963963 -0.000228554 -0.00283051);&quot;&gt;&lt;br&gt;&lt;/span&gt;&lt;span style=&quot;margin: 0px; padding: 0px; border: 0px; font-family: &amp;quot;gg mono&amp;quot;, &amp;quot;Source Code Pro&amp;quot;, Consolas, &amp;quot;Andale Mono WT&amp;quot;, &amp;quot;Andale Mono&amp;quot;, &amp;quot;Lucida Console&amp;quot;, &amp;quot;Lucida Sans Typewriter&amp;quot;, &amp;quot;DejaVu Sans Mono&amp;quot;, &amp;quot;Bitstream Vera Sans Mono&amp;quot;, &amp;quot;Liberation Mono&amp;quot;, &amp;quot;Nimbus Mono L&amp;quot;, Monaco, &amp;quot;Courier New&amp;quot;, Courier, monospace; font-size: 14px; vertical-align: baseline; outline: 0px; color: rgb(115, 92, 15); white-space-collapse: preserve;&quot; class=&quot;hljs-bullet&quot;&gt;-&lt;/span&gt;&lt;span style=&quot;color: oklab(0.321088 -0.000220731 -0.00934622); font-family: &amp;quot;gg mono&amp;quot;, &amp;quot;Source Code Pro&amp;quot;, Consolas, &amp;quot;Andale Mono WT&amp;quot;, &amp;quot;Andale Mono&amp;quot;, &amp;quot;Lucida Console&amp;quot;, &amp;quot;Lucida Sans Typewriter&amp;quot;, &amp;quot;DejaVu Sans Mono&amp;quot;, &amp;quot;Bitstream Vera Sans Mono&amp;quot;, &amp;quot;Liberation Mono&amp;quot;, &amp;quot;Nimbus Mono L&amp;quot;, Monaco, &amp;quot;Courier New&amp;quot;, Courier, monospace; font-size: 14px; white-space-collapse: preserve; background-color: oklab(0.963963 -0.000228554 -0.00283051);&quot;&gt; [ ] Translator&lt;br&gt;&lt;/span&gt;&lt;span style=&quot;margin: 0px; padding: 0px; border: 0px; font-family: &amp;quot;gg mono&amp;quot;, &amp;quot;Source Code Pro&amp;quot;, Consolas, &amp;quot;Andale Mono WT&amp;quot;, &amp;quot;Andale Mono&amp;quot;, &amp;quot;Lucida Console&amp;quot;, &amp;quot;Lucida Sans Typewriter&amp;quot;, &amp;quot;DejaVu Sans Mono&amp;quot;, &amp;quot;Bitstream Vera Sans Mono&amp;quot;, &amp;quot;Liberation Mono&amp;quot;, &amp;quot;Nimbus Mono L&amp;quot;, Monaco, &amp;quot;Courier New&amp;quot;, Courier, monospace; font-size: 14px; vertical-align: baseline; outline: 0px; color: rgb(115, 92, 15); white-space-collapse: preserve;&quot; class=&quot;hljs-bullet&quot;&gt;-&lt;/span&gt;&lt;span style=&quot;color: oklab(0.321088 -0.000220731 -0.00934622); font-family: &amp;quot;gg mono&amp;quot;, &amp;quot;Source Code Pro&amp;quot;, Consolas, &amp;quot;Andale Mono WT&amp;quot;, &amp;quot;Andale Mono&amp;quot;, &amp;quot;Lucida Console&amp;quot;, &amp;quot;Lucida Sans Typewriter&amp;quot;, &amp;quot;DejaVu Sans Mono&amp;quot;, &amp;quot;Bitstream Vera Sans Mono&amp;quot;, &amp;quot;Liberation Mono&amp;quot;, &amp;quot;Nimbus Mono L&amp;quot;, Monaco, &amp;quot;Courier New&amp;quot;, Courier, monospace; font-size: 14px; white-space-collapse: preserve; background-color: oklab(0.963963 -0.000228554 -0.00283051);&quot;&gt; [ ] Trough reader&lt;br&gt;&lt;/span&gt;&lt;span style=&quot;margin: 0px; padding: 0px; border: 0px; font-family: &amp;quot;gg mono&amp;quot;, &amp;quot;Source Code Pro&amp;quot;, Consolas, &amp;quot;Andale Mono WT&amp;quot;, &amp;quot;Andale Mono&amp;quot;, &amp;quot;Lucida Console&amp;quot;, &amp;quot;Lucida Sans Typewriter&amp;quot;, &amp;quot;DejaVu Sans Mono&amp;quot;, &amp;quot;Bitstream Vera Sans Mono&amp;quot;, &amp;quot;Liberation Mono&amp;quot;, &amp;quot;Nimbus Mono L&amp;quot;, Monaco, &amp;quot;Courier New&amp;quot;, Courier, monospace; font-size: 14px; vertical-align: baseline; outline: 0px; color: rgb(115, 92, 15); white-space-collapse: preserve;&quot; class=&quot;hljs-bullet&quot;&gt;-&lt;/span&gt;&lt;span style=&quot;color: oklab(0.321088 -0.000220731 -0.00934622); font-family: &amp;quot;gg mono&amp;quot;, &amp;quot;Source Code Pro&amp;quot;, Consolas, &amp;quot;Andale Mono WT&amp;quot;, &amp;quot;Andale Mono&amp;quot;, &amp;quot;Lucida Console&amp;quot;, &amp;quot;Lucida Sans Typewriter&amp;quot;, &amp;quot;DejaVu Sans Mono&amp;quot;, &amp;quot;Bitstream Vera Sans Mono&amp;quot;, &amp;quot;Liberation Mono&amp;quot;, &amp;quot;Nimbus Mono L&amp;quot;, Monaco, &amp;quot;Courier New&amp;quot;, Courier, monospace; font-size: 14px; white-space-collapse: preserve; background-color: oklab(0.963963 -0.000228554 -0.00283051);&quot;&gt; [ ] Editor&lt;br&gt;&lt;/span&gt;&lt;span style=&quot;margin: 0px; padding: 0px; border: 0px; font-family: &amp;quot;gg mono&amp;quot;, &amp;quot;Source Code Pro&amp;quot;, Consolas, &amp;quot;Andale Mono WT&amp;quot;, &amp;quot;Andale Mono&amp;quot;, &amp;quot;Lucida Console&amp;quot;, &amp;quot;Lucida Sans Typewriter&amp;quot;, &amp;quot;DejaVu Sans Mono&amp;quot;, &amp;quot;Bitstream Vera Sans Mono&amp;quot;, &amp;quot;Liberation Mono&amp;quot;, &amp;quot;Nimbus Mono L&amp;quot;, Monaco, &amp;quot;Courier New&amp;quot;, Courier, monospace; font-size: 14px; vertical-align: baseline; outline: 0px; color: rgb(115, 92, 15); white-space-collapse: preserve;&quot; class=&quot;hljs-bullet&quot;&gt;-&lt;/span&gt;&lt;span style=&quot;color: oklab(0.321088 -0.000220731 -0.00934622); font-family: &amp;quot;gg mono&amp;quot;, &amp;quot;Source Code Pro&amp;quot;, Consolas, &amp;quot;Andale Mono WT&amp;quot;, &amp;quot;Andale Mono&amp;quot;, &amp;quot;Lucida Console&amp;quot;, &amp;quot;Lucida Sans Typewriter&amp;quot;, &amp;quot;DejaVu Sans Mono&amp;quot;, &amp;quot;Bitstream Vera Sans Mono&amp;quot;, &amp;quot;Liberation Mono&amp;quot;, &amp;quot;Nimbus Mono L&amp;quot;, Monaco, &amp;quot;Courier New&amp;quot;, Courier, monospace; font-size: 14px; white-space-collapse: preserve; background-color: oklab(0.963963 -0.000228554 -0.00283051);&quot;&gt; [ ] Lecturer&lt;br&gt;&lt;/span&gt;&lt;span style=&quot;margin: 0px; padding: 0px; border: 0px; font-family: &amp;quot;gg mono&amp;quot;, &amp;quot;Source Code Pro&amp;quot;, Consolas, &amp;quot;Andale Mono WT&amp;quot;, &amp;quot;Andale Mono&amp;quot;, &amp;quot;Lucida Console&amp;quot;, &amp;quot;Lucida Sans Typewriter&amp;quot;, &amp;quot;DejaVu Sans Mono&amp;quot;, &amp;quot;Bitstream Vera Sans Mono&amp;quot;, &amp;quot;Liberation Mono&amp;quot;, &amp;quot;Nimbus Mono L&amp;quot;, Monaco, &amp;quot;Courier New&amp;quot;, Courier, monospace; font-size: 14px; vertical-align: baseline; outline: 0px; color: rgb(115, 92, 15); white-space-collapse: preserve;&quot; class=&quot;hljs-bullet&quot;&gt;-&lt;/span&gt;&lt;span style=&quot;color: oklab(0.321088 -0.000220731 -0.00934622); font-family: &amp;quot;gg mono&amp;quot;, &amp;quot;Source Code Pro&amp;quot;, Consolas, &amp;quot;Andale Mono WT&amp;quot;, &amp;quot;Andale Mono&amp;quot;, &amp;quot;Lucida Console&amp;quot;, &amp;quot;Lucida Sans Typewriter&amp;quot;, &amp;quot;DejaVu Sans Mono&amp;quot;, &amp;quot;Bitstream Vera Sans Mono&amp;quot;, &amp;quot;Liberation Mono&amp;quot;, &amp;quot;Nimbus Mono L&amp;quot;, Monaco, &amp;quot;Courier New&amp;quot;, Courier, monospace; font-size: 14px; white-space-collapse: preserve; background-color: oklab(0.963963 -0.000228554 -0.00283051);&quot;&gt; [ ] Multiple roles per pearson&lt;br&gt;&lt;br&gt;&lt;/span&gt;&lt;span style=&quot;margin: 0px; padding: 0px; border: 0px; font-weight: 700; font-family: &amp;quot;gg mono&amp;quot;, &amp;quot;Source Code Pro&amp;quot;, Consolas, &amp;quot;Andale Mono WT&amp;quot;, &amp;quot;Andale Mono&amp;quot;, &amp;quot;Lucida Console&amp;quot;, &amp;quot;Lucida Sans Typewriter&amp;quot;, &amp;quot;DejaVu Sans Mono&amp;quot;, &amp;quot;Bitstream Vera Sans Mono&amp;quot;, &amp;quot;Liberation Mono&amp;quot;, &amp;quot;Nimbus Mono L&amp;quot;, Monaco, &amp;quot;Courier New&amp;quot;, Courier, monospace; font-size: 14px; vertical-align: baseline; outline: 0px; color: rgb(0, 92, 197); white-space-collapse: preserve;&quot; class=&quot;hljs-section&quot;&gt;## Later:&lt;/span&gt;&lt;span style=&quot;color: oklab(0.321088 -0.000220731 -0.00934622); font-family: &amp;quot;gg mono&amp;quot;, &amp;quot;Source Code Pro&amp;quot;, Consolas, &amp;quot;Andale Mono WT&amp;quot;, &amp;quot;Andale Mono&amp;quot;, &amp;quot;Lucida Console&amp;quot;, &amp;quot;Lucida Sans Typewriter&amp;quot;, &amp;quot;DejaVu Sans Mono&amp;quot;, &amp;quot;Bitstream Vera Sans Mono&amp;quot;, &amp;quot;Liberation Mono&amp;quot;, &amp;quot;Nimbus Mono L&amp;quot;, Monaco, &amp;quot;Courier New&amp;quot;, Courier, monospace; font-size: 14px; white-space-collapse: preserve; background-color: oklab(0.963963 -0.000228554 -0.00283051);&quot;&gt;&lt;br&gt;&lt;/span&gt;&lt;span style=&quot;margin: 0px; padding: 0px; border: 0px; font-family: &amp;quot;gg mono&amp;quot;, &amp;quot;Source Code Pro&amp;quot;, Consolas, &amp;quot;Andale Mono WT&amp;quot;, &amp;quot;Andale Mono&amp;quot;, &amp;quot;Lucida Console&amp;quot;, &amp;quot;Lucida Sans Typewriter&amp;quot;, &amp;quot;DejaVu Sans Mono&amp;quot;, &amp;quot;Bitstream Vera Sans Mono&amp;quot;, &amp;quot;Liberation Mono&amp;quot;, &amp;quot;Nimbus Mono L&amp;quot;, Monaco, &amp;quot;Courier New&amp;quot;, Courier, monospace; font-size: 14px; vertical-align: baseline; outline: 0px; color: rgb(115, 92, 15); white-space-collapse: preserve;&quot; class=&quot;hljs-bullet&quot;&gt;-&lt;/span&gt;&lt;span style=&quot;color: oklab(0.321088 -0.000220731 -0.00934622); font-family: &amp;quot;gg mono&amp;quot;, &amp;quot;Source Code Pro&amp;quot;, Consolas, &amp;quot;Andale Mono WT&amp;quot;, &amp;quot;Andale Mono&amp;quot;, &amp;quot;Lucida Console&amp;quot;, &amp;quot;Lucida Sans Typewriter&amp;quot;, &amp;quot;DejaVu Sans Mono&amp;quot;, &amp;quot;Bitstream Vera Sans Mono&amp;quot;, &amp;quot;Liberation Mono&amp;quot;, &amp;quot;Nimbus Mono L&amp;quot;, Monaco, &amp;quot;Courier New&amp;quot;, Courier, monospace; font-size: 14px; white-space-collapse: preserve; background-color: oklab(0.963963 -0.000228554 -0.00283051);&quot;&gt; [ ] Multi fandom&lt;br&gt;&lt;/span&gt;&lt;span style=&quot;margin: 0px; padding: 0px; border: 0px; font-family: &amp;quot;gg mono&amp;quot;, &amp;quot;Source Code Pro&amp;quot;, Consolas, &amp;quot;Andale Mono WT&amp;quot;, &amp;quot;Andale Mono&amp;quot;, &amp;quot;Lucida Console&amp;quot;, &amp;quot;Lucida Sans Typewriter&amp;quot;, &amp;quot;DejaVu Sans Mono&amp;quot;, &amp;quot;Bitstream Vera Sans Mono&amp;quot;, &amp;quot;Liberation Mono&amp;quot;, &amp;quot;Nimbus Mono L&amp;quot;, Monaco, &amp;quot;Courier New&amp;quot;, Courier, monospace; font-size: 14px; vertical-align: baseline; outline: 0px; color: rgb(115, 92, 15); white-space-collapse: preserve;&quot; class=&quot;hljs-bullet&quot;&gt;-&lt;/span&gt;&lt;span style=&quot;color: oklab(0.321088 -0.000220731 -0.00934622); font-family: &amp;quot;gg mono&amp;quot;, &amp;quot;Source Code Pro&amp;quot;, Consolas, &amp;quot;Andale Mono WT&amp;quot;, &amp;quot;Andale Mono&amp;quot;, &amp;quot;Lucida Console&amp;quot;, &amp;quot;Lucida Sans Typewriter&amp;quot;, &amp;quot;DejaVu Sans Mono&amp;quot;, &amp;quot;Bitstream Vera Sans Mono&amp;quot;, &amp;quot;Liberation Mono&amp;quot;, &amp;quot;Nimbus Mono L&amp;quot;, Monaco, &amp;quot;Courier New&amp;quot;, Courier, monospace; font-size: 14px; white-space-collapse: preserve; background-color: oklab(0.963963 -0.000228554 -0.00283051);&quot;&gt; [ ] Requests&lt;/span&gt;" style="rounded=0;whiteSpace=wrap;html=1;align=left;" vertex="1" parent="1">
          <mxGeometry x="-760" y="600" width="600" height="830" as="geometry" />
        </mxCell>
        <mxCell id="wuVaLa7RmXQEy_1NEMXT-12" value="" style="rounded=0;whiteSpace=wrap;html=1;" vertex="1" parent="1">
          <mxGeometry x="-120" y="1920" width="600" height="360" as="geometry" />
        </mxCell>
        <mxCell id="wuVaLa7RmXQEy_1NEMXT-13" value="Kép" style="rounded=0;whiteSpace=wrap;html=1;" vertex="1" parent="1">
          <mxGeometry x="-80" y="1950" width="200" height="300" as="geometry" />
        </mxCell>
        <mxCell id="wuVaLa7RmXQEy_1NEMXT-14" value="" style="ellipse;whiteSpace=wrap;html=1;" vertex="1" parent="1">
          <mxGeometry x="-60" y="1970" width="60" height="60" as="geometry" />
        </mxCell>
        <mxCell id="wuVaLa7RmXQEy_1NEMXT-15" value="" style="rounded=0;whiteSpace=wrap;html=1;fillColor=none;strokeColor=#6c8ebf;" vertex="1" parent="1">
          <mxGeometry x="-60" y="1970" width="60" height="60" as="geometry" />
        </mxCell>
        <mxCell id="wuVaLa7RmXQEy_1NEMXT-16" value="" style="rounded=0;whiteSpace=wrap;html=1;" vertex="1" parent="1">
          <mxGeometry x="150" y="1950" width="300" height="70" as="geometry" />
        </mxCell>
        <mxCell id="wuVaLa7RmXQEy_1NEMXT-17" value="Japánul" style="rounded=1;whiteSpace=wrap;html=1;" vertex="1" parent="1">
          <mxGeometry x="157" y="1960" width="286" height="20" as="geometry" />
        </mxCell>
        <mxCell id="wuVaLa7RmXQEy_1NEMXT-18" value="Fordítás" style="rounded=0;whiteSpace=wrap;html=1;" vertex="1" parent="1">
          <mxGeometry x="160" y="1990" width="240" height="20" as="geometry" />
        </mxCell>
        <mxCell id="wuVaLa7RmXQEy_1NEMXT-19" value="Nyelvről -&amp;gt; Mire" style="rounded=0;whiteSpace=wrap;html=1;" vertex="1" parent="1">
          <mxGeometry x="390" y="1920" width="90" height="20" as="geometry" />
        </mxCell>
        <mxCell id="wuVaLa7RmXQEy_1NEMXT-20" value="" style="shape=partialRectangle;whiteSpace=wrap;html=1;right=0;top=0;bottom=0;fillColor=none;routingCenterX=-0.5;" vertex="1" parent="1">
          <mxGeometry x="390" y="1995" width="10" height="10" as="geometry" />
        </mxCell>
        <mxCell id="wuVaLa7RmXQEy_1NEMXT-21" value="" style="rounded=0;whiteSpace=wrap;html=1;fillColor=none;strokeColor=#6c8ebf;" vertex="1" parent="1">
          <mxGeometry x="-50" y="2084" width="60" height="60" as="geometry" />
        </mxCell>
        <mxCell id="wuVaLa7RmXQEy_1NEMXT-22" value="" style="rounded=0;whiteSpace=wrap;html=1;fillColor=none;strokeColor=#6c8ebf;" vertex="1" parent="1">
          <mxGeometry x="30" y="2010" width="60" height="60" as="geometry" />
        </mxCell>
        <mxCell id="wuVaLa7RmXQEy_1NEMXT-23" value="" style="rounded=0;whiteSpace=wrap;html=1;fillColor=none;strokeColor=#6c8ebf;" vertex="1" parent="1">
          <mxGeometry x="30" y="2144" width="60" height="60" as="geometry" />
        </mxCell>
        <mxCell id="wuVaLa7RmXQEy_1NEMXT-24" value="" style="rounded=0;whiteSpace=wrap;html=1;" vertex="1" parent="1">
          <mxGeometry x="150" y="2030" width="300" height="70" as="geometry" />
        </mxCell>
        <mxCell id="wuVaLa7RmXQEy_1NEMXT-25" value="Japánul" style="rounded=1;whiteSpace=wrap;html=1;" vertex="1" parent="1">
          <mxGeometry x="157" y="2040" width="286" height="20" as="geometry" />
        </mxCell>
        <mxCell id="wuVaLa7RmXQEy_1NEMXT-26" value="Fordítás" style="rounded=0;whiteSpace=wrap;html=1;" vertex="1" parent="1">
          <mxGeometry x="160" y="2070" width="280" height="20" as="geometry" />
        </mxCell>
        <mxCell id="wuVaLa7RmXQEy_1NEMXT-27" value="" style="rounded=0;whiteSpace=wrap;html=1;" vertex="1" parent="1">
          <mxGeometry x="150" y="2114" width="300" height="70" as="geometry" />
        </mxCell>
        <mxCell id="wuVaLa7RmXQEy_1NEMXT-28" value="Japánul" style="rounded=1;whiteSpace=wrap;html=1;" vertex="1" parent="1">
          <mxGeometry x="157" y="2124" width="286" height="20" as="geometry" />
        </mxCell>
        <mxCell id="wuVaLa7RmXQEy_1NEMXT-29" value="Fordítás" style="rounded=0;whiteSpace=wrap;html=1;" vertex="1" parent="1">
          <mxGeometry x="160" y="2154" width="280" height="20" as="geometry" />
        </mxCell>
        <mxCell id="wuVaLa7RmXQEy_1NEMXT-30" value="" style="rounded=0;whiteSpace=wrap;html=1;" vertex="1" parent="1">
          <mxGeometry x="150" y="2190" width="300" height="70" as="geometry" />
        </mxCell>
        <mxCell id="wuVaLa7RmXQEy_1NEMXT-31" value="Japánul" style="rounded=1;whiteSpace=wrap;html=1;" vertex="1" parent="1">
          <mxGeometry x="157" y="2200" width="286" height="20" as="geometry" />
        </mxCell>
        <mxCell id="wuVaLa7RmXQEy_1NEMXT-32" value="Fordítás" style="rounded=0;whiteSpace=wrap;html=1;" vertex="1" parent="1">
          <mxGeometry x="160" y="2230" width="280" height="20" as="geometry" />
        </mxCell>
        <mxCell id="wuVaLa7RmXQEy_1NEMXT-33" value="" style="rounded=0;whiteSpace=wrap;html=1;" vertex="1" parent="1">
          <mxGeometry x="-770" y="1920" width="240" height="360" as="geometry" />
        </mxCell>
        <mxCell id="wuVaLa7RmXQEy_1NEMXT-34" value="Link" style="rounded=0;whiteSpace=wrap;html=1;" vertex="1" parent="1">
          <mxGeometry x="-740" y="1970" width="180" height="40" as="geometry" />
        </mxCell>
        <mxCell id="wuVaLa7RmXQEy_1NEMXT-35" value="Pic drop box" style="rounded=0;whiteSpace=wrap;html=1;" vertex="1" parent="1">
          <mxGeometry x="-740" y="2024" width="180" height="116" as="geometry" />
        </mxCell>
        <mxCell id="wuVaLa7RmXQEy_1NEMXT-36" value="Cím" style="rounded=0;whiteSpace=wrap;html=1;" vertex="1" parent="1">
          <mxGeometry x="-740" y="1935" width="180" height="25" as="geometry" />
        </mxCell>
        <mxCell id="wuVaLa7RmXQEy_1NEMXT-37" value="" style="rounded=0;whiteSpace=wrap;html=1;" vertex="1" parent="1">
          <mxGeometry x="-490" y="1920" width="310" height="360" as="geometry" />
        </mxCell>
        <mxCell id="wuVaLa7RmXQEy_1NEMXT-38" value="Original képek" style="rounded=0;whiteSpace=wrap;html=1;" vertex="1" parent="1">
          <mxGeometry x="-480" y="2010" width="90" height="165" as="geometry" />
        </mxCell>
        <mxCell id="wuVaLa7RmXQEy_1NEMXT-39" value="Cím" style="rounded=0;whiteSpace=wrap;html=1;" vertex="1" parent="1">
          <mxGeometry x="-480" y="1930" width="290" height="20" as="geometry" />
        </mxCell>
        <mxCell id="wuVaLa7RmXQEy_1NEMXT-40" value="Metadata" style="rounded=1;whiteSpace=wrap;html=1;" vertex="1" parent="1">
          <mxGeometry x="-480" y="1960" width="290" height="40" as="geometry" />
        </mxCell>
        <mxCell id="wuVaLa7RmXQEy_1NEMXT-41" value="&amp;lt;&amp;nbsp; &amp;nbsp;7&amp;nbsp; &amp;nbsp;&amp;gt;" style="rounded=0;whiteSpace=wrap;html=1;" vertex="1" parent="1">
          <mxGeometry x="-120" y="1920" width="60" height="20" as="geometry" />
        </mxCell>
        <mxCell id="wuVaLa7RmXQEy_1NEMXT-42" value="UwU" style="rounded=0;whiteSpace=wrap;html=1;" vertex="1" parent="1">
          <mxGeometry x="400" y="1990" width="40" height="20" as="geometry" />
        </mxCell>
        <mxCell id="wuVaLa7RmXQEy_1NEMXT-43" value="Tisztított képek" style="rounded=0;whiteSpace=wrap;html=1;" vertex="1" parent="1">
          <mxGeometry x="-380" y="2010" width="90" height="165" as="geometry" />
        </mxCell>
        <mxCell id="wuVaLa7RmXQEy_1NEMXT-44" value="Végleges képek" style="rounded=0;whiteSpace=wrap;html=1;" vertex="1" parent="1">
          <mxGeometry x="-280" y="2010" width="90" height="165" as="geometry" />
        </mxCell>
        <mxCell id="wuVaLa7RmXQEy_1NEMXT-45" value="" style="rounded=0;whiteSpace=wrap;html=1;" vertex="1" parent="1">
          <mxGeometry x="-480" y="2161" width="30" height="14" as="geometry" />
        </mxCell>
        <mxCell id="wuVaLa7RmXQEy_1NEMXT-46" value="" style="rounded=0;whiteSpace=wrap;html=1;" vertex="1" parent="1">
          <mxGeometry x="-450" y="2161" width="30" height="14" as="geometry" />
        </mxCell>
        <mxCell id="wuVaLa7RmXQEy_1NEMXT-47" value="" style="rounded=0;whiteSpace=wrap;html=1;" vertex="1" parent="1">
          <mxGeometry x="-420" y="2161" width="30" height="14" as="geometry" />
        </mxCell>
        <mxCell id="wuVaLa7RmXQEy_1NEMXT-48" value="" style="rounded=0;whiteSpace=wrap;html=1;" vertex="1" parent="1">
          <mxGeometry x="520" y="1920" width="660" height="360" as="geometry" />
        </mxCell>
        <mxCell id="wuVaLa7RmXQEy_1NEMXT-49" value="" style="rounded=0;whiteSpace=wrap;html=1;" vertex="1" parent="1">
          <mxGeometry x="560" y="1955" width="140" height="265" as="geometry" />
        </mxCell>
        <mxCell id="wuVaLa7RmXQEy_1NEMXT-50" value="Borító" style="rounded=0;whiteSpace=wrap;html=1;" vertex="1" parent="1">
          <mxGeometry x="570" y="1964" width="120" height="176" as="geometry" />
        </mxCell>
        <mxCell id="wuVaLa7RmXQEy_1NEMXT-51" value="Cím + meta data" style="rounded=0;whiteSpace=wrap;html=1;" vertex="1" parent="1">
          <mxGeometry x="570" y="2144" width="120" height="36" as="geometry" />
        </mxCell>
        <mxCell id="wuVaLa7RmXQEy_1NEMXT-52" value="" style="rounded=0;whiteSpace=wrap;html=1;" vertex="1" parent="1">
          <mxGeometry x="570" y="2184" width="120" height="6" as="geometry" />
        </mxCell>
        <mxCell id="wuVaLa7RmXQEy_1NEMXT-53" value="" style="rounded=0;whiteSpace=wrap;html=1;fillColor=#000000;" vertex="1" parent="1">
          <mxGeometry x="570" y="2184" width="60" height="6" as="geometry" />
        </mxCell>
        <mxCell id="wuVaLa7RmXQEy_1NEMXT-54" value="Edit" style="rounded=1;whiteSpace=wrap;html=1;" vertex="1" parent="1">
          <mxGeometry x="570" y="2195" width="60" height="15" as="geometry" />
        </mxCell>
        <mxCell id="wuVaLa7RmXQEy_1NEMXT-57" value="User" style="rounded=0;whiteSpace=wrap;html=1;" vertex="1" parent="1">
          <mxGeometry x="80" y="200" width="80" height="40" as="geometry" />
        </mxCell>
        <mxCell id="wuVaLa7RmXQEy_1NEMXT-58" value="Manga" style="rounded=0;whiteSpace=wrap;html=1;" vertex="1" parent="1">
          <mxGeometry x="240" y="200" width="80" height="40" as="geometry" />
        </mxCell>
        <mxCell id="wuVaLa7RmXQEy_1NEMXT-59" value="User Group" style="rounded=0;whiteSpace=wrap;html=1;" vertex="1" parent="1">
          <mxGeometry x="400" y="200" width="80" height="40" as="geometry" />
        </mxCell>
        <mxCell id="wuVaLa7RmXQEy_1NEMXT-60" value="&lt;div style=&quot;text-align: left;&quot;&gt;&lt;span style=&quot;background-color: initial;&quot;&gt;https://www.melegmare.net/fandom/&amp;lt;name&amp;gt;/pics/lsadhglkjashgkjlahsfdjklghflasjk.png&lt;/span&gt;&lt;/div&gt;&lt;div style=&quot;text-align: left;&quot;&gt;&lt;span style=&quot;background-color: initial;&quot;&gt;https://www.melegmare.net/data/pics/lsadhglkjashgkjlahsfdjklghflasjk.png&lt;/span&gt;&lt;/div&gt;" style="rounded=0;whiteSpace=wrap;html=1;" vertex="1" parent="1">
          <mxGeometry x="270" y="80" width="540" height="40" as="geometry" />
        </mxCell>
        <mxCell id="wuVaLa7RmXQEy_1NEMXT-61" value="Roles" style="rounded=0;whiteSpace=wrap;html=1;" vertex="1" parent="1">
          <mxGeometry x="80" y="280" width="80" height="40" as="geometry" />
        </mxCell>
        <mxCell id="wuVaLa7RmXQEy_1NEMXT-63" value="Tags" style="rounded=0;whiteSpace=wrap;html=1;" vertex="1" parent="1">
          <mxGeometry x="240" y="280" width="80" height="40" as="geometry" />
        </mxCell>
        <mxCell id="wuVaLa7RmXQEy_1NEMXT-64" value="F Roles" style="rounded=0;whiteSpace=wrap;html=1;" vertex="1" parent="1">
          <mxGeometry x="400" y="280" width="80" height="40" as="geometry" />
        </mxCell>
        <mxCell id="wuVaLa7RmXQEy_1NEMXT-65" value="Follow" style="rounded=0;whiteSpace=wrap;html=1;" vertex="1" parent="1">
          <mxGeometry x="80" y="360" width="80" height="40" as="geometry" />
        </mxCell>
        <mxCell id="wuVaLa7RmXQEy_1NEMXT-67" value="Nyelv" style="rounded=0;whiteSpace=wrap;html=1;" vertex="1" parent="1">
          <mxGeometry x="560" y="200" width="80" height="40" as="geometry" />
        </mxCell>
        <mxCell id="wuVaLa7RmXQEy_1NEMXT-68" value="Translation" style="rounded=0;whiteSpace=wrap;html=1;" vertex="1" parent="1">
          <mxGeometry x="240" y="360" width="80" height="40" as="geometry" />
        </mxCell>
        <mxCell id="wuVaLa7RmXQEy_1NEMXT-69" value="Database" style="rounded=0;whiteSpace=wrap;html=1;" vertex="1" parent="1">
          <mxGeometry x="80" y="80" width="120" height="40" as="geometry" />
        </mxCell>
      </root>
    </mxGraphModel>
  </diagram>
</mxfile>
